<?xml version="1.0" encoding="UTF-8"?><svg id="_レイヤー_2" xmlns="http://www.w3.org/2000/svg" xmlns:xlink="http://www.w3.org/1999/xlink" viewBox="0 0 245 388"><defs><style>.cls-1,.cls-2{fill:none;}.cls-3{fill:url(#_新規グラデーションスウォッチ_8);}.cls-2{clip-path:url(#clippath);}.cls-4{fill:url(#_新規グラデーションスウォッチ_8-2);}.cls-5{fill:url(#_新規グラデーションスウォッチ_8-3);}</style><clipPath id="clippath"><rect class="cls-1" width="245" height="388"/></clipPath><linearGradient id="_新規グラデーションスウォッチ_8" x1="174.68" y1="-16.54" x2="174.68" y2="132.5" gradientUnits="userSpaceOnUse"><stop offset="0" stop-color="#6496dc"/><stop offset=".1" stop-color="#6496dc" stop-opacity=".88"/><stop offset=".55" stop-color="#6496dc" stop-opacity=".41"/><stop offset=".86" stop-color="#6496dc" stop-opacity=".12"/><stop offset="1" stop-color="#6496dc" stop-opacity="0"/></linearGradient><linearGradient id="_新規グラデーションスウォッチ_8-2" x1="143.16" y1="105" x2="143.16" y2="388.72" xlink:href="#_新規グラデーションスウォッチ_8"/><linearGradient id="_新規グラデーションスウォッチ_8-3" x1="143.16" y1="105" x2="143.16" y2="388.72" xlink:href="#_新規グラデーションスウォッチ_8"/></defs><g id="design"><g class="cls-2"><path class="cls-3" d="m121.98,132.5h0c-.98,0-1.96-.38-2.7-1.13h0c-1.49-1.49-1.49-3.92,0-5.42h0c1.49-1.49,3.92-1.49,5.42,0h0c1.49,1.49,1.49,3.92,0,5.42-.75.75-1.73,1.13-2.71,1.13Zm15.71-15.71h0c-.98,0-1.96-.38-2.71-1.13h0c-1.49-1.49-1.49-3.91,0-5.42h0c1.5-1.49,3.92-1.49,5.42,0h0c1.49,1.5,1.49,3.92,0,5.42-.75.75-1.73,1.13-2.71,1.13Zm15.71-15.71h0c-.98,0-1.96-.37-2.71-1.12h0c-1.49-1.49-1.49-3.92,0-5.42h0c1.49-1.5,3.92-1.5,5.42,0h0c1.49,1.49,1.49,3.92,0,5.42-.74.75-1.72,1.12-2.7,1.12Zm15.7-15.7h0c-.98,0-1.96-.38-2.7-1.13h0c-1.5-1.49-1.5-3.92,0-5.42h0c1.49-1.49,3.92-1.49,5.42,0h0c1.49,1.49,1.49,3.92,0,5.42-.75.75-1.73,1.13-2.71,1.13Zm15.71-15.71h0c-.98,0-1.96-.38-2.71-1.12h0c-1.49-1.49-1.49-3.92,0-5.42h0c1.5-1.5,3.92-1.5,5.42,0h0c1.5,1.49,1.5,3.92,0,5.42-.74.74-1.72,1.12-2.7,1.12Zm15.7-15.7h0c-.98,0-1.96-.38-2.7-1.13h0c-1.5-1.49-1.5-3.92,0-5.42h0c1.49-1.49,3.92-1.49,5.42,0h0c1.49,1.49,1.49,3.92,0,5.42-.75.75-1.73,1.13-2.71,1.13Zm15.71-15.71h0c-.98,0-1.96-.38-2.71-1.12h0c-1.49-1.5-1.49-3.92,0-5.42h0c1.5-1.49,3.92-1.49,5.42,0h0c1.49,1.5,1.49,3.92,0,5.42-.75.74-1.73,1.12-2.71,1.12Zm15.71-15.71h0c-.98,0-1.96-.37-2.71-1.12h0c-1.49-1.49-1.49-3.92,0-5.42h0c1.49-1.5,3.92-1.5,5.42,0h0c1.49,1.49,1.49,3.92,0,5.42-.74.75-1.72,1.12-2.7,1.12Zm15.7-15.7h0c-.98,0-1.96-.38-2.7-1.13h0c-1.5-1.49-1.5-3.92,0-5.42h0c1.49-1.49,3.92-1.49,5.42,0h0c1.49,1.49,1.49,3.92,0,5.42-.75.75-1.73,1.13-2.71,1.13Zm15.71-15.71h0c-.98,0-1.96-.38-2.71-1.12h0c-1.49-1.5-1.49-3.92,0-5.42h0c1.5-1.49,3.92-1.49,5.42,0h0c1.5,1.5,1.5,3.92,0,5.42-.74.74-1.72,1.12-2.7,1.12Z"/><path class="cls-3" d="m86,127.72h0c-.98,0-1.96-.38-2.7-1.13h0c-1.5-1.49-1.5-3.92,0-5.42h0c1.49-1.49,3.92-1.49,5.42,0h0c1.49,1.49,1.49,3.92,0,5.42-.75.75-1.73,1.13-2.71,1.13Zm15.71-15.71h0c-.98,0-1.96-.38-2.71-1.12h0c-1.49-1.5-1.49-3.92,0-5.42h0c1.49-1.5,3.92-1.5,5.42,0h0c1.5,1.49,1.5,3.91,0,5.42-.74.74-1.72,1.12-2.7,1.12Zm15.7-15.71h0c-.98,0-1.96-.37-2.7-1.12h0c-1.49-1.49-1.49-3.92,0-5.42h0c1.49-1.49,3.92-1.49,5.42,0h0c1.49,1.49,1.49,3.92,0,5.42-.75.75-1.73,1.12-2.71,1.12Zm15.71-15.7h0c-.98,0-1.96-.38-2.71-1.13h0c-1.49-1.49-1.49-3.91,0-5.42h0c1.5-1.49,3.92-1.49,5.42,0h0c1.5,1.5,1.5,3.92,0,5.42-.74.75-1.72,1.13-2.7,1.13Zm15.71-15.71h0c-.98,0-1.96-.38-2.71-1.12h0c-1.49-1.5-1.49-3.92,0-5.42h0c1.49-1.5,3.92-1.5,5.42,0h0c1.49,1.49,1.49,3.91,0,5.42-.74.74-1.72,1.12-2.7,1.12Zm15.7-15.7h0c-.98,0-1.96-.38-2.7-1.13h0c-1.5-1.49-1.5-3.92,0-5.42h0c1.49-1.49,3.91-1.49,5.42,0h0c1.49,1.49,1.49,3.92,0,5.42-.75.75-1.73,1.13-2.71,1.13Z"/><path class="cls-4" d="m116.92,327.29c1.02,0,2.05-.39,2.83-1.17l166.24-166.24c1.56-1.56,1.56-4.09,0-5.65-1.56-1.56-4.09-1.56-5.65,0l-166.24,166.24c-1.56,1.56-1.56,4.09,0,5.65.78.78,1.8,1.17,2.83,1.17Z"/><path class="cls-5" d="m3.17,388.72c1.02,0,2.05-.39,2.83-1.17L281.72,111.82c1.56-1.56,1.56-4.09,0-5.65-1.56-1.56-4.09-1.56-5.65,0L.34,381.9c-1.56,1.56-1.56,4.09,0,5.65.78.78,1.8,1.17,2.83,1.17Z"/></g></g></svg>