<?xml version="1.0" encoding="UTF-8"?><svg id="_レイヤー_2" xmlns="http://www.w3.org/2000/svg" viewBox="0 0 554.2 278.69"><defs><style>.cls-1{fill:#fff;}</style></defs><g id="design"><path class="cls-1" d="m67.71,210.6c1.34,1.09,3,1.98,3.88,3.37.48.76-.18,2.43-.64,3.56-.65,1.61-1.85,3.02-2.36,4.66-4.73,15.09-7.18,30.56-7.67,46.37-.03.96-1.05,1.89-1.6,2.84-.79-.84-2.19-1.63-2.27-2.53-.36-4.53.29-9.17.3-13.65,0-1.94.34-3.85.62-5.77.1-.69-.12-1.41-.21-2.12-.56.3-1.2.5-1.66.92-7.71,7.02-15.45,14.03-23.08,21.14-2.44,2.27-4.7,4.76-6.82,7.33-1.32,1.6-2.73,2.86-4.44,1.2-1.53-1.48-1.44-3.63.11-5.25,1.82-1.91,3.82-3.65,5.77-5.43,3.18-2.9,6.45-5.71,9.53-8.71.71-.69,1.21-2.08,1.14-3.08-.74-10.05-.18-19.99,2.18-29.82.41-1.7.49-3.49.72-5.23-1.55.49-3.15.85-4.63,1.5-9.29,4.07-18.57,8.18-27.81,12.36-1.24.56-2.24,1.64-3.44,2.32-1.97,1.11-4.47.21-5.1-1.95-.55-1.88-.16-3.42,2.06-4.28,9.31-3.64,18.52-7.54,27.86-11.11,11.16-4.27,22.36-8.44,33.63-12.39,8.65-3.03,17.41-5.73,26.18-8.4,3.84-1.17,7.79-2.04,11.74-2.74,2.15-.38,4.46-.4,6.61-.03,1.04.18,1.86,1.64,2.78,2.52-.94.41-1.86,1.11-2.83,1.2-14.1,1.32-27.41,5.5-40.39,10.91-.07.03-.06.26-.09.4-.82.05-1.71-.08-2.46.18-4.19,1.45-8.3,3.13-12.52,4.47-2.23.71-3.64,1.43-3.36,4.22.11,1.06-1.24,2.26-1.91,3.4-.47.81-.93,1.63-1.4,2.44.87-.04,1.76,0,2.61-.15.95-.16,1.89-.45,2.8-.77,2.24-.79,4.13-.09,4.72,2.06.6,2.18-1.54,2.36-3.08,3.08-2.98,1.38-5.96,2.92-8.56,4.89-.96.73-.85,2.88-1.23,4.38,1.04-.26,2.08-.51,3.11-.79,1.72-.47,3.47-1.43,5.12-1.27,1.05.1,2.27,1.7,2.78,2.89.21.5-1.03,1.99-1.92,2.52-2.34,1.42-4.76,2.78-7.3,3.74-2.13.8-2.71,2.14-2.5,4.12.09.9.3,1.79.46,2.68.83-.37,1.76-.61,2.47-1.14,3.96-2.97,7.94-5.93,11.76-9.08.96-.79,1.66-2.2,1.97-3.45,1.93-7.95,3.9-15.89,5.45-23.92.42-2.18,1.38-3.43,2.94-4.58Z"/><path class="cls-1" d="m164.69,201.16c8.08-2.52,16.1-5.29,24.27-7.5,7.48-2.02,15.15-2.36,22.72-.22,3.43.97,6.72,2.72,7.83,6.25.79,2.52.88,5.58.27,8.16-1.86,7.94-4.08,15.8-6.4,23.62-1.03,3.49-2.95,4.6-5.41,3.82-1.59-.5-2.45-1.32-1.09-3,4.81-5.96,5.86-13.36,7.79-20.42.47-1.74.79-3.52,1.1-5.29.91-5.08-.96-8.35-5.97-9.04-7.03-.98-14.13-1.51-21.06.94-7.19,2.54-14.47,4.83-21.6,7.51-6.09,2.29-11.08,6.32-15.83,10.71-2.19,2.03-4.82,3.57-7.16,5.45-.69.55-1.4,1.41-1.57,2.24-1.96,9.57-3.43,19.19-1.39,28.93.39,1.85-.33,2.98-1.72,3.12-1.01.1-2.87-.87-3.09-1.69-.66-2.52-1.11-5.22-.93-7.8.62-8.74,1.43-17.48,2.44-26.19.26-2.27,1.32-4.52,2.35-6.61.8-1.62,2.4-2.45,4.24-1.61,2.04.93,3.25-.11,4.78-1.27,3.66-2.75,7.54-5.21,11.31-7.83,1.11-.77,2.12-1.69,3.18-2.55.31.09.62.18.94.27Z"/><path class="cls-1" d="m272.88,190.86c-1.66.17-3.31.35-4.97.52-2.58.25-4.85.5-2.86,4.15.51.94.06,2.96-.68,3.93-3.97,5.17-7.88,10.46-12.39,15.14-3.96,4.11-9.36,4.38-12.45,1.58-2.95-2.67-2.86-7.45-.13-12.31,3.59-6.38,9.13-10.51,15.52-13.5,5.92-2.77,12.15-4.83,18.84-4.58,8.28.31,13.81,8.46,10.93,16.28-1.83,4.97-4.19,9.65-7.86,13.65-2.82,3.07-5.1,6.63-7.9,9.72-1.07,1.18-2.9,1.66-4.39,2.46.42-1.67.46-3.58,1.33-4.96,3.48-5.51,7.29-10.81,10.83-16.28,1.12-1.73,1.93-3.69,2.69-5.61,2.45-6.14.05-9.78-6.53-10.16Zm-14.1,3.43c-.78.37-1.15.55-1.53.73-5.87,2.85-10.83,6.74-13.77,12.72-.53,1.07-.28,2.52-.38,3.79,1.44-.06,3.25.42,4.25-.28,5.46-3.79,9.36-8.96,12-15.04.19-.45-.34-1.21-.56-1.92Z"/><path class="cls-1" d="m45.74,194.05c.79-5.15,1.21-9.16,2.13-13.05.29-1.22,1.75-2.4,2.96-3.13,2.44-1.48,5.24-2.38,7.59-3.97,4.64-3.13,9.68-4.86,15.22-4.78,6.38.09,9.68,4.93,7.98,11.02-1.27,4.55-2.59,8.93-5.21,13.03-2.06,3.24-5.14,4.05-8.05,5.5-3.85,1.91-7.78,3.65-11.66,5.51-.74.35-1.72.82-1.96,1.46-.68,1.86-1.71,2.84-3.74,2.34-2.08-.52-3.45-1.83-3.8-3.95-.61-3.67-1.09-7.37-1.46-9.98Zm32.41-15.37c-.46-3.54-1.71-4.95-5.12-4.7-5.08.36-9.82,1.66-13.51,5.59-2.63,2.8-5.56,5.33-8.17,8.15-.62.67-.52,2.02-.74,3.05,1-.1,2.08,0,3-.33,5.48-1.96,10.9-4.08,16.4-5.99.77-.27,1.84.36,2.77.58-.38.89-.52,2.16-1.19,2.61-1.96,1.31-4.15,2.26-6.22,3.41-4.46,2.48-8.92,4.97-13.33,7.53-.43.25-.56,1.03-.83,1.56.61-.07,1.29.01,1.83-.22,5.48-2.35,10.52-6.08,16.99-5.32.32.04.87-.27,1.01-.56,2.4-5.1,4.76-10.23,7.12-15.35Z"/><path class="cls-1" d="m107.56,251.11c-4.58-1.32-9.54-2.68-14.45-4.18-2.92-.89-5.86-1.83-8.65-3.05-2.38-1.04-3.98-.36-5.4,1.52-2.01,2.66-4.12,5.25-6.02,7.98-1.06,1.51-2.01,2.83-3.98,1.5-2.38-1.61-.81-3.07.28-4.51,1.59-2.11,3.22-4.19,4.79-6.32.76-1.03,1.16-1.7-.78-2.12-4.38-.94-4.7-1.89-2.85-6.15.16-.37.43-.86.32-1.15-1.81-4.56,2.03-7.06,4.09-9.81,1.8-2.4,4.99-3.86,7.74-5.4,1.11-.62,2.74-.59,4.08-.44,4.36.5,6.51,4.19,4.59,8.18-1.44,2.99-3.34,5.76-5.16,8.55-1.96,3.01-2.06,3.04,1.11,4.38,8.34,3.52,16.69,6.98,25.86,7.77.72.06,1.41.55,2.11.83-.61.48-1.16,1.21-1.85,1.39-1.73.45-3.53.64-5.82,1.03Zm-29.01-14.68s1.2-.13,1.62-.76c2.02-2.98,3.87-6.07,5.68-9.19.28-.49.05-1.28.05-1.93-.64.03-1.36-.13-1.9.12-4.17,1.88-6.54,5.19-8.1,9.45-.85,2.33.13,2.3,2.65,2.31Z"/><path class="cls-1" d="m185.09,219.78c2.31,5.08-2.54,6.22-5.93,8.46-3.34,2.21-6.6,4.57-9.74,7.05-3.07,2.43-5.83,1.87-7.1-1.84-.44-1.27-.63-2.76-.44-4.08.53-3.69,1.65-7.32.39-11.1-.2-.6.25-1.81.79-2.21,3.64-2.7,6.83-6.09,11.64-6.96,6.86-1.23,11.37,2.92,10.39,10.67Zm-8.58-5.7c-1.91,1.24-4.49,2.06-5.57,3.81-1.61,2.6-2.19,5.84-3.1,8.85-.07.23.99,1.14,1.16,1.05,1.55-.84,2.92-2.14,4.55-2.71,3.39-1.18,4.86-3.88,5.96-6.85.82-2.23-.22-3.43-2.99-4.14Z"/><path class="cls-1" d="m146.59,181.47c-.78-1.03-1.92-1.95-2.2-3.08-.23-.89.3-2.65,1-3,4.86-2.38,9.84-4.53,14.81-6.68,2.53-1.09,5.25-1.82,7.65-3.14.93-.51,1.48-2.15,1.7-3.36.22-1.18-.32-2.47-.32-3.71,0-2.03.68-3.61,3.13-3.46,2.27.14,3.57,1.32,3.64,3.65.12,4.03.11,4.04,4.07,2.69,4.34-1.48,8.64-3.07,13-4.46,3.42-1.09,5.46-.58,5.68,1.3.41,3.47-2.55,2.93-4.5,3.59-8.66,2.94-17.44,5.55-25.92,8.95-6.67,2.67-12.96,6.31-19.42,9.52-.62.31-1.22.63-2.33,1.19Z"/><path class="cls-1" d="m164.69,201.16c-.31-.09-.62-.18-.94-.27-3.36.37-4.32-.15-4.79-3.34-.56-3.83-1.29-7.74-.96-11.53.15-1.72,2.37-3.76,4.16-4.74,3.64-1.99,7.56-3.51,11.47-4.94,2.83-1.04,5.59-.02,7.09,2.11,1.69,2.4,1.5,4.9-.84,7.6-3.91,4.52-7.78,9.11-12.91,12.4-.95.61-1.53,1.79-2.28,2.71Zm11.18-18.53c-1.07-.38-1.73-.88-2.24-.76-4.67,1.08-6.8,5.22-9.78,8.32-.23.24-.15.8-.19,1.21-.15,1.55.4,2.14,1.89,1.33,1.34-.73,2.6-2.01,3.99-2.14,4.92-.48,3.57-5.33,6.34-7.96Z"/><path class="cls-1" d="m100.62,81.21c-5.97-.27-6.43.26-8.91,5.62-3.13,6.77-6.6,13.39-10.03,20.01-.82,1.58-1.38,2.9-.4,4.62,2.05,3.59,4.01,7.23,5.92,10.9.44.84.51,1.88.75,2.82-.96-.39-2.3-.51-2.83-1.22-2.12-2.88-4.18-5.83-5.88-8.97-1.03-1.91-1.41-2.24-2.98-.45-3.29,3.74-6.63,7.5-10.39,10.73-2.11,1.81-5.01,3.18-7.74,3.68-5.5,1.01-9.61-3.44-8.04-8.91,1.31-4.56,3.37-9.04,5.84-13.1,4.34-7.13,9.66-13.54,16.29-18.77.67-.53,1.22-1.54,1.32-2.39.82-7.02,1.53-14.05,2.23-21.08.09-.92-.12-1.88-.19-2.81-1,.35-2.09.53-2.97,1.07-3.19,1.94-6.31,3.99-9.46,5.99-.47.3-.95.56-1.44.81-1.87.97-3.62,1.04-4.4-1.27-.66-1.96.15-3.47,2.1-4.37,5.53-2.54,11.08-5.02,16.51-7.76,1.15-.58,2.22-2.05,2.59-3.32,1.29-4.51,2.15-9.13,3.4-13.65.31-1.12,1.52-2.83,2.27-2.81,1.43.04,3.16.83,4.14,1.89.97,1.04.39,2.33-.92,3.48-2.59,2.25-2.78,5.62-3.13,8.79-.03.26,1.04,1,1.32.88,3.67-1.6,7.29-3.34,10.93-5,.72-.33,1.62-.85,2.26-.66.96.28,1.75,1.1,2.62,1.69-.64.65-1.17,1.55-1.95,1.92-4.99,2.39-10.01,4.69-15.06,6.96-2.2.99-3.44,2.39-3.82,4.94-1.02,6.7-2.38,13.35-3.55,20.03-.39,2.26.08,3.12,2.53,1.71,2.98-1.72,6.18-3.05,9.29-4.53,3.22-1.54,3.08-5.03,4.47-7.63.5-.94.72-2.33,1.49-2.75.75-.41,2.44-.23,2.99.37.66.72.99,2.26.72,3.24-1.22,4.41-1.29,4.18,3.3,4.83,5.54.79,11.07,1.99,14.12,7.44.97,1.73,1.89,3.95,1.66,5.8-.76,6.32-2.25,12.51-6.49,17.58-.56.66-1.61.91-2.44,1.35.11-.87.1-1.78.35-2.61,1.28-4.2,2.86-8.33,3.9-12.59,1.7-6.95-.68-10.54-7.62-12-1.62-.34-3.32-.35-4.66-.48Zm-24.89,25.85c-.78-4.1-1.67-7.75-2.11-11.45-.3-2.58-1.14-2.01-2.38-.8-7.44,7.28-13.07,15.75-16.43,25.62-1.17,3.45.52,5.15,4,4.26.91-.23,1.76-.78,2.56-1.3,5.58-3.63,9.66-8.71,13.42-14.07.53-.75.73-1.73.94-2.26Zm.78-15c.61,3.37,1.18,6.34,1.68,9.32.21,1.26.94,1.47,1.45.46,2.8-5.51,5.46-11.09,8.09-16.68.06-.13-.98-1.06-1.14-.97-2.88,1.59-5.79,3.17-8.49,5.03-.86.59-1.14,2.01-1.58,2.83Z"/><path class="cls-1" d="m392.34,51.99c.45-5.71.76-10.36,1.22-15.01.09-.94.52-2.08,1.2-2.63.36-.3,1.66.34,2.4.78.93.55,2.11,2.1,2.48,1.9,1.44-.77,3.31-1.85,3.72-3.21.7-2.26.4-4.82.52-7.26-1.67.89-3.37,1.74-5.01,2.69-1.01.58-1.87,1.46-2.92,1.94-1.58.72-2.92.54-3.91-1.24-.7-1.26-1.9-2.23-2.74-3.43-1.02-1.47-2.41-2.96-2.7-4.61-.67-3.82-.89-7.74-1.04-11.62-.04-.95.72-2.52,1.45-2.76,1-.33,2.79-.04,3.41.69,1.51,1.76,2.43,1.12,3.79-.06,6.3-5.46,14.06-7.2,22.01-8.12,1.81-.21,3.89.51,5.6,1.31,2.94,1.38,4.15,4.5,2.77,7.46-1.53,3.27-3.12,6.69-5.49,9.31-1.66,1.85-4.71,2.42-7.07,3.68-1.11.59-2.67,1.3-2.94,2.26-.51,1.8-.26,3.82-.21,5.75,0,.12,1.08.39,1.61.29,1.41-.24,2.79-.69,4.19-.98,3.39-.7,6.34.45,8.47,2.93,1.83,2.14.72,4.68-.09,7.05-1.3,3.77-3.33,7.05-6.46,9.55-.61.49-1.58.54-2.39.79-.05-.82-.15-1.64-.14-2.47,0-.69.14-1.37.22-2.06-.63.08-1.31.04-1.88.27-.84.34-1.67.79-2.37,1.35-1.64,1.3-1.54,2.72.37,3.75,2.08,1.12,2.43,2.25.41,3.73-.21.15-.59.26-.62.45-.27,1.35-.46,2.71-.68,4.06,1.03,0,2.16.28,3.08-.04,6.35-2.24,12.65-4.61,18.97-6.91,1.1-.4,2.25-.71,3.4-.92.38-.07.84.3,1.27.47-.36.28-.71.57-1.07.85-.67.53-1.33,1.08-2.02,1.59-1.45,1.06-2.78,2.39-4.39,3.07-5.03,2.13-10.15,4.03-15.25,5.99-3.6,1.38-4.06,2.21-3.95,6.04.42,14.21.81,28.42,1.1,42.64.03,1.39-.75,2.79-1.16,4.19-.59-1.29-1.53-2.54-1.69-3.88-.43-3.49-.6-7.02-.72-10.53-.36-10.44-.65-20.88-.94-31.33-.11-3.87-.46-4.21-4.07-2.44-7.12,3.48-14.18,7.08-21.2,10.75-1.85.97-3.27,1.57-4.52-.75-1.25-2.34.17-3.5,1.9-4.27,7.95-3.58,15.95-7.04,23.93-10.55.72-.31,1.62-.43,2.12-.94.54-.54.72-1.45,1.05-2.2-.71-.11-1.42-.23-2.14-.32-.12-.02-.25.09-.37.11-2.53.3-5.35,3.55-7.48-.47-1.27-2.4-4.15-4.33-3.04-6.68Zm11.01-39.18c.44-.47,1.11-1.8,2.06-2.04,1.68-.43,3.22.56,3.36,2.39.21,2.58-.26,5.49,3.92,3.7,2.77,1.98,3.66.02,4.51-2.12.72-1.81,1.6-3.56,2.23-5.39,1.08-3.19.01-4.81-3.36-4.59-4.13.27-8.15.94-12.01,2.87-4.3,2.15-7.63,5.32-11.1,8.48-2.74,2.49-2.96,4.98-.2,7.57,1.55,1.45,2.69,1.89,4.92.7,4.38-2.33,8.21-4.5,5.78-10.42-.05-.12-.03-.26-.11-1.15Zm5.79,25.94c-.24,1.99-.11,3.27,2.39,2,.78-.39,2.44-.37,2.89.15,2.72,3.14,3.08.21,3.5-1.4.39-1.48.12-3.12.15-4.69-2.11.11-4.26.01-6.33.38-1.8.32-3.01,1.52-2.59,3.56Zm-11.97,8.56c.39.11,1.01.52,1.35.35,1.61-.82,3.29-1.62,4.66-2.77.74-.62.95-1.92,1.26-2.95.06-.19-.77-.85-.8-.83-2.15,1.79-4.27,3.63-6.38,5.47-.07.06-.03.25-.08.73Zm4.77,6.32c1.07-.89,1.99-1.66,2.91-2.43-.22-.22-.6-.65-.65-.61-1.03.7-2.02,1.46-3.02,2.21.17.19.34.38.76.83Z"/><path class="cls-1" d="m363.43,36.37c.13-5.88.32-13.06.42-20.23.02-1.55-.27-3.1-.37-4.65-.12-1.83.03-3.52,2.53-3.45,2.03.05,3.08,1.45,2.89,3.77-.38,4.67-.86,9.33-1.07,14-.12,2.73.2,5.47.35,8.21.02.37.22.74.34,1.1.39-.29.95-.48,1.16-.87,2.86-5.23,5.9-10.37,8.36-15.78.92-2.03,1.94-2.25,3.52-1.8,1.82.52,2.91,2.89,2.03,4.27-3.77,5.92-7.6,11.8-11.41,17.7-.07.11-.13.24-.22.32-.81.74-1.63,1.48-2.44,2.22,1.3-.23,2.66-.32,3.9-.74,1.97-.67,3.84-1.63,5.8-2.33.94-.34,2.07-.68,2.97-.44.87.23,1.54,1.19,2.3,1.83-.64.56-1.19,1.35-1.93,1.66-4.32,1.8-8.69,3.48-13.03,5.23-.43.17-.77.57-1.15.87.52.15,1.04.44,1.55.42,2.83-.06,4.61,1.79,4.2,4.53-.11.75-.78,1.55-.64,2.19.3,1.34.98,2.59,1.5,3.88,1.05-.54,2.29-.89,3.1-1.67,1.3-1.26,2.27-2.84,3.47-4.21.66-.76,1.41-1.6,2.31-1.96,1.33-.54,2.61-.02,2,1.64-1.92,5.28-4.86,9.85-10.2,12.29-2.14.98-4.58-.74-5.33-3.71-.64-2.52-1.02-5.1-1.59-7.64-.16-.68-.6-1.3-.91-1.95-.62.41-1.5.68-1.81,1.25-2.46,4.7-5.28,9.3-7.08,14.25-1.94,5.33-2.98,11.01-4.26,16.57-.41,1.77-1.18,2.94-3.01,2.96-1.18.01-2.45-2.64-2.03-4.05,2.12-7.07,4.15-14.17,6.46-21.18.97-2.94,2.55-5.67,3.83-8.51.2-.44.3-.93.45-1.39-.56.05-1.21-.06-1.67.19-5.26,2.86-10.51,5.75-15.72,8.69-2.3,1.3-3.56.84-4.42-1.54-.5-1.39-.24-2.15,1.11-2.78,7.19-3.36,14.36-6.79,21.54-10.18.47-.22,1.14-.21,1.44-.55.54-.62.88-1.42,1.3-2.15-.65.17-1.35.25-1.94.54-3.37,1.65-6.02.99-8.06-2.13-1.84-2.83-3.75-5.63-5.36-8.59-.66-1.21-1.88-2.99.02-4.15,1.77-1.07,3.34-.1,4.27,1.51.84,1.46,1.26,3.15,2.05,4.64,1.39,2.63,2.6,5.44,6.22,5.86,2.23.26,3.68.16,2.24-3.97Z"/><path class="cls-1" d="m284.82,77.28c.19,1.82.53,3.04.35,4.18-.12.78-.84,1.9-1.5,2.06-.64.16-1.9-.52-2.22-1.17-.5-.99-.61-2.27-.56-3.41.08-1.91.47-3.81.61-5.72.06-.88-.18-1.77-.29-2.66-.77.25-1.61.4-2.31.79-2.51,1.38-4.94,2.89-7.46,4.25-.8.43-1.9.93-2.64.69-.83-.26-1.74-1.23-1.98-2.07-.17-.58.55-1.83,1.19-2.16,4.14-2.13,8.31-4.19,12.58-6.05,1.5-.65,2.19-1.5,2.63-3.02,1.07-3.65,2.25-7.27,3.63-10.81.35-.9,1.69-2.13,2.38-2.02,1.08.17,2.28,1.2,2.88,2.19.29.48-.58,1.76-1.09,2.58-.49.79-1.46,1.36-1.74,2.19-.5,1.53-.65,3.18-.95,4.78,1.34-.27,2.68-.54,4.03-.81.71-.14,1.41-.29,2.12-.42,3.84-.75,6.93,1.54,6.57,5.33-.58,6.07-3.08,11.48-6.84,16.27-.5.63-1.32,1.37-2.01,1.4-1,.04-2.24-.26-3-.89-1.16-.96-.33-1.81.64-2.53,4.23-3.12,5.69-7.83,6.87-12.57.65-2.59.08-3.1-2.49-2.56-2.21.47-4.37,1.22-6.46,2.07-.6.24-1.12,1.21-1.29,1.94-.67,2.9-1.19,5.83-1.65,8.17Z"/><path class="cls-1" d="m226.72,49.37c-.35,1.69.31,1.62,1.58.88,1.14-.66,2.39-1.11,3.57-1.7,1.56-.78,3.28-.99,4.04.74.82,1.86-1.02,2.3-2.34,2.85-2.76,1.15-5.58,2.18-8.22,3.55-1.13.59-2.25,1.77-2.71,2.94-1,2.54-1.87,5.2-2.26,7.89-1.35,9.34-2.41,18.72-3.75,28.06-.28,1.94-1.16,3.84-2.05,5.6-.28.55-1.83,1.06-2.28.78-.61-.39-1.2-1.73-.97-2.37,2.78-7.9,2.11-16.32,3.81-24.37.79-3.73,1.52-7.47,2.19-11.22.21-1.15.12-2.35.17-3.52-1.09.24-2.26.3-3.25.76-3.68,1.71-7.27,3.61-10.96,5.31-1,.46-2.36.89-3.29.56-.76-.27-1.47-1.67-1.5-2.59-.02-.59,1.14-1.45,1.94-1.8,4.82-2.07,9.63-4.22,14.57-5.94,3.67-1.28,5.75-3.59,6.46-7.28.34-1.79,1.45-2.4,3.1-2.18,1.45.19,2.3,1.42,2.15,3.05Z"/><path class="cls-1" d="m140.75,97.88c-2.29-.58-1.93-2.06-1.53-3.48,1.07-3.78,2.19-7.55,3.28-11.32.79-2.75,1.6-5.49,2.35-8.24.14-.51.05-1.07.07-1.61-.45.09-.96.07-1.36.28-3.17,1.69-6.31,3.42-9.46,5.13-1.25.67-2.5,1.35-3.78,1.95-1.26.59-2.6.98-3.29-.75-.58-1.47-.03-2.44,1.46-3.12,4.23-1.93,8.25-4.45,12.64-5.82,4.9-1.54,7.4-4.97,9.21-9.19.63-1.46.99-2.77,2.84-2.42,1.68.32,3.02,1.41,2.77,3.18-.31,2.27.56,1.85,1.87,1.19.42-.21.93-.49,1.35-.43.64.1,1.74.42,1.77.72.06.68-.22,1.77-.72,2.05-1.76.99-3.64,1.81-5.54,2.51-2.35.85-3.67,2.29-4.83,4.67-3.08,6.33-4,13.19-5.88,19.82-.38,1.35-.95,2.68-1.64,3.9-.29.52-1.13.73-1.59,1Z"/><path class="cls-1" d="m170.45,76.09c-.34-1.98-.67-3.15-.7-4.33-.02-.74.2-1.97.64-2.13.76-.29,2.22-.27,2.58.22.86,1.16,1.64,2.64,1.72,4.03.11,1.94.85,1.92,2.24,1.44,2.36-.82,4.7-1.74,7.12-2.32.82-.2,1.87.53,2.81.83-.62.66-1.11,1.57-1.87,1.95-2.87,1.44-5.79,2.81-8.78,3.98-1.61.63-2.44,1.52-2.92,3.2-.65,2.27-1.63,4.47-2.66,6.6-1.43,2.95-6.89,5.97-11.13,4.27-3.88-1.56-4.85-5.07-2.15-8.31,2.7-3.23,6.51-4.72,10.1-6.6,1.31-.68,2.24-2.08,3-2.83Zm-8.9,13.93c2.8.18,7.12-3.59,6.99-5.97-.01-.23-.97-.71-1.18-.58-2.24,1.36-4.44,2.78-6.58,4.29-.38.27-.67,1.16-.5,1.53.18.41.95.56,1.27.73Z"/><path class="cls-1" d="m481.8,56.31c-2.71-.9-5.25-1.59-7.68-2.57-8.33-3.38-16.3-7.4-23.26-13.2-3.01-2.5-2.86-4.07.48-6.24,4.41-2.87,8.74-5.86,13.21-8.64,1.12-.7,2.83-1.41,3.87-1.03,1.02.38,2.05,2.11,2.13,3.31.1,1.59-1.34,2.06-3,2.26-4.73.59-8.05,3.94-11.66,6.63-.31.23-.25,1.66.12,1.98,1.97,1.71,3.98,3.42,6.18,4.81,6.16,3.88,12.45,7.55,19.65,9.25.23.05.52.11.66.27.59.66,1.14,1.35,1.7,2.04-.81.39-1.61.78-2.39,1.15Z"/><path class="cls-1" d="m254.77,77.45c-.53.66-.81,1.27-1.28,1.55-1.42.84-2.85,1.78-4.41,2.25-3.86,1.16-7.81,2.04-11.7,3.11-1.46.41-2.85,1.08-4.29,1.58-1.49.52-3.9-.51-4.16-1.9-.36-1.88,1.06-2.5,2.5-2.83,6.6-1.5,13.21-2.96,19.83-4.4.8-.17,1.66-.21,2.48-.16.32.02.62.46,1.03.79Z"/><path class="cls-1" d="m316.14,64.65c-2.69-1.48-5.18-2.79-7.61-4.2-2.04-1.19-4.08-2.39-5.96-3.8-.83-.62-1.5-1.69-1.8-2.69-.16-.52.61-1.87,1.03-1.91,1.06-.09,2.34.09,3.21.65,2.69,1.74,5.17,3.79,7.86,5.54,1.25.82,2.88,1.06,4.15,1.86.86.54,1.41,1.59,2.1,2.4-.89.64-1.77,1.28-2.97,2.14Z"/><path class="cls-1" d="m244.37,65.08c-.92.57-1.47.96-2.07,1.26-2.96,1.5-5.97,2.92-8.88,4.51-.99.55-1.65,1.67-2.61,2.3-.8.53-1.94,1.15-2.72.94-.81-.22-1.81-1.31-1.93-2.14-.11-.77.62-2.06,1.35-2.49,3.49-2.01,7.07-3.89,10.7-5.63,1.1-.53,2.52-.69,3.75-.55.76.08,1.43,1.03,2.42,1.8Z"/><path class="cls-1" d="m171.06,56.87c3.5,1.09,7.03,2.1,10.47,3.33.92.33,1.85,1.22,2.3,2.1.4.79.15,1.91.19,2.88-.94-.16-2.15-.01-2.76-.55-2.37-2.07-5.14-2.99-8.16-3.24-1.28-.11-2.6.24-3.9.38-2.31.26-3.33-.48-3.44-2.46-.13-2.36,1.66-1.85,2.98-1.96.71-.06,1.43.02,2.15.03.06-.17.11-.34.17-.51Z"/><path class="cls-1" d="m315.79,48.42c-.21.3-.58,1.4-1.27,1.67-.65.26-2.01-.1-2.42-.65-1.33-1.79-2.49-3.73-3.46-5.74-.7-1.43.29-1.93,1.62-1.85,2,.11,5.55,3.92,5.53,6.57Z"/><path class="cls-1" d="m326.73,43.39c-.13,1.68-2.17,2.8-3.38,1.59-1.63-1.62-2.83-3.69-4.08-5.66-.18-.29.27-1.42.64-1.55,2.04-.71,7,3.45,6.82,5.62Z"/><path class="cls-1" d="m335.8,174.32c-8.61,3.39-16.53,6.43-24.38,9.66-1.88.77-3.72,1.94-5.16,3.36-1.63,1.6-3.25,1.79-4.47.22-1.19-1.55-1.21-3.62,1.03-4.63,7.52-3.4,14.95-7.05,22.66-9.96,9.85-3.71,9.97-3.44,7.51-13.66-.56-2.34-1.34-4.62-2.15-7.38-3.64,1.95-7.31,3.59-10.63,5.78-2.56,1.69-3.69-.17-4.53-1.54-1.02-1.68-.06-2.67,1.98-3.47,4.31-1.7,8.38-4.03,12.61-6.13-.58-6.64-1.25-13.21-1.65-19.8-.07-1.23.91-2.52,1.41-3.78,1.16,1.27,3.08,2.41,3.33,3.84.7,4.02.66,8.17,1.01,12.26.17,1.95.56,3.87.89,6.08,4.25-1.27,8.12-2.48,12.02-3.57,1.11-.31,2.43-.63,3.44-.29,1.06.35,1.87,1.49,2.79,2.28-.82.62-1.55,1.5-2.47,1.82-4.39,1.56-8.87,2.86-13.22,4.51-.83.31-1.83,1.88-1.71,2.7.77,5.07,1.84,10.09,2.95,15.84,9.8-4.05,19.4-8.02,28.91-11.95.46.86,1.11,2.08,1.82,3.42-7.93,6.15-18.83,8.97-29.92,13.18,5.24,26.59,7.2,53.9,15.56,81.11-1.81-1.51-3.71-2.3-4.08-3.54-2.28-7.67-4.35-15.41-6.22-23.2-1.08-4.52-1.65-9.16-2.45-13.74-1.19-6.74-2.39-13.49-3.56-20.23-1.08-6.18-2.13-12.35-3.31-19.17Z"/><path class="cls-1" d="m530.16,149.97c2.99-1.71,5.99-3.18,8.72-5.05,3.18-2.18,6.23-4.59,9.15-7.12,2.52-2.18,2.05-3.98-1.18-4.88-8.38-2.35-16.85-1.98-25.33-.66-13.14,2.04-25.71,5.97-37.84,11.37-.76.34-1.83.85-2.39.56-1.22-.62-2.2-1.7-3.27-2.59.69-.76,1.24-1.94,2.09-2.22,9.52-3.18,18.96-6.65,28.66-9.18,10.39-2.72,21.06-4.04,31.83-2.29,4.55.74,9.01,1.75,12.25,5.67,1.95,2.36,1.64,4.81.05,6.52-5.07,5.45-11.01,9.8-18.26,12.06-2.12.66-3.6.03-4.47-2.17Z"/><path class="cls-1" d="m496.57,215.8c2.24-3.18,4.31-6.49,6.74-9.51,5.94-7.35,9.22-15.98,11.83-24.84,2.19-7.43,4.13-15.02,5.18-22.67.64-4.62.76-9.67-1.53-14.23-.33-.65.02-1.65.06-2.48.92.19,2.33.07,2.68.62,1.23,1.97,2.5,4.08,3.03,6.31,1.52,6.4.64,12.82-1.1,19.03-2.48,8.86-5.06,17.71-8.16,26.36-2.57,7.18-7.13,13.29-12.53,18.67-1.51,1.5-3.65,2.37-5.5,3.53-.24-.26-.47-.52-.71-.79Z"/><path class="cls-1" d="m391.97,172.9c.67,2.43,1.31,4.71,1.97,7.11,2.61-.54,5.84-1.51,9.13-1.77,1.54-.12,3.69.72,4.63,1.88.71.87.49,3.35-.29,4.41-2.48,3.39-5.29,6.58-8.26,9.56-.88.89-2.72.82-4.7,1.34,1.01,3.24,2.33,7.45,3.66,11.72-4.42-1.21-5.61-3.57-9.55-18.91-2.92,1.58-5.74,3.13-8.58,4.65-3.68,1.98-4.49,1.62-5.88-2.82,3.3-1.63,6.63-3.3,9.98-4.93,2.44-1.19,3.99-2.7,3.95-5.83-.03-2.28-.65-5.47,3.93-6.41Zm2.27,18.74c5.31-4.01,6.57-5.73,6.34-8.44-7.83,2.44-8.07,2.75-6.34,8.44Z"/><path class="cls-1" d="m425.46,220.46c2.85-4.89,6.1-9.55,8.39-14.63,3.28-7.28,6.13-14.79,8.66-22.37,2.17-6.48,3.51-13.24,5.47-19.79,1.79-6,1.74-12.01.86-18.09-.21-1.43-1.01-3.56,1.22-3.45,1.31.07,3.45,1.91,3.63,3.18.59,4.11.79,8.34.51,12.49-.89,13.44-5.49,25.92-10.72,38.14-2.78,6.5-6.25,12.72-9.59,18.97-.79,1.49-2.16,2.73-3.48,3.84-.57.48-1.72.2-2.53.47-.81.27-1.54.79-2.42,1.26Z"/><path class="cls-1" d="m425.4,175.95c-4.01-2.25-5.39-5.01-4.88-8.98.65-5.1.85-10.26,1.5-15.36.16-1.24,1.31-2.36,2-3.54.97,1.14,2.56,2.18,2.78,3.45.44,2.48.28,5.11.09,7.66-.39,5.45-.96,10.88-1.5,16.77Z"/></g></svg>