<?xml version="1.0" encoding="UTF-8"?><svg id="_レイヤー_2" xmlns="http://www.w3.org/2000/svg" xmlns:xlink="http://www.w3.org/1999/xlink" viewBox="0 0 1512 852"><defs><style>.cls-1,.cls-2,.cls-3,.cls-4,.cls-5,.cls-6,.cls-7,.cls-8,.cls-9,.cls-10,.cls-11,.cls-12,.cls-13,.cls-14,.cls-15,.cls-16,.cls-17,.cls-18,.cls-19,.cls-20,.cls-21,.cls-22{fill:none;}.cls-2{opacity:.5;}.cls-3{opacity:.9;}.cls-23{filter:url(#luminosity-noclip-9);}.cls-24{filter:url(#luminosity-noclip-7);}.cls-25{filter:url(#luminosity-noclip-3);}.cls-26{filter:url(#luminosity-noclip-5);}.cls-4{clip-path:url(#clippath-1);}.cls-27{fill:url(#_名称未設定グラデーション_124);}.cls-28{filter:url(#luminosity-noclip);}.cls-29{fill:#fff;}.cls-30{fill:url(#_名称未設定グラデーション_124-4);}.cls-31{fill:url(#_名称未設定グラデーション_124-3);}.cls-32{fill:url(#_名称未設定グラデーション_124-8);}.cls-33{fill:url(#_名称未設定グラデーション_124-7);}.cls-34{fill:url(#_名称未設定グラデーション_124-2);}.cls-35{fill:url(#_名称未設定グラデーション_124-6);}.cls-36{fill:url(#_名称未設定グラデーション_124-5);}.cls-5{mask:url(#mask-9);}.cls-6{mask:url(#mask-8);}.cls-7{mask:url(#mask-2);}.cls-8{mask:url(#mask-3);}.cls-9{mask:url(#mask-6);}.cls-10{mask:url(#mask-7);}.cls-11{mask:url(#mask-4);}.cls-12{mask:url(#mask-5);}.cls-13{mask:url(#mask-1);}.cls-37{filter:url(#luminosity-noclip-15);}.cls-38{filter:url(#luminosity-noclip-13);}.cls-39{filter:url(#luminosity-noclip-11);}.cls-40{fill:url(#_名称未設定グラデーション_721-3);}.cls-40,.cls-41,.cls-42,.cls-43,.cls-44,.cls-45,.cls-46,.cls-47{mix-blend-mode:multiply;}.cls-41{fill:url(#_名称未設定グラデーション_721-2);}.cls-42{fill:url(#_名称未設定グラデーション_721-5);}.cls-43{fill:url(#_名称未設定グラデーション_721-8);}.cls-44{fill:url(#_名称未設定グラデーション_721-6);}.cls-45{fill:url(#_名称未設定グラデーション_721-4);}.cls-46{fill:url(#_名称未設定グラデーション_721-7);}.cls-14{mask:url(#mask-10);}.cls-15{mask:url(#mask-16);}.cls-16{mask:url(#mask-11);}.cls-17{mask:url(#mask-12);}.cls-18{mask:url(#mask-13);}.cls-19{mask:url(#mask-14);}.cls-20{mask:url(#mask-15);}.cls-21{mask:url(#mask);}.cls-48{fill:url(#_名称未設定グラデーション_82);}.cls-49{fill:url(#_名称未設定グラデーション_83);}.cls-47{fill:url(#_名称未設定グラデーション_721);}.cls-50{fill:url(#_新規グラデーションスウォッチ_8);}.cls-22{clip-path:url(#clippath);}.cls-51{fill:url(#_新規グラデーションスウォッチ_8-2);}</style><clipPath id="clippath"><rect class="cls-1" width="1512" height="852"/></clipPath><linearGradient id="_新規グラデーションスウォッチ_8" x1="1174.5" y1="0" x2="1174.5" y2="852" gradientTransform="translate(532) skewX(-45)" gradientUnits="userSpaceOnUse"><stop offset="0" stop-color="#6496dc"/><stop offset=".1" stop-color="#6496dc" stop-opacity=".88"/><stop offset=".55" stop-color="#6496dc" stop-opacity=".41"/><stop offset=".86" stop-color="#6496dc" stop-opacity=".12"/><stop offset="1" stop-color="#6496dc" stop-opacity="0"/></linearGradient><filter id="luminosity-noclip" x="1312.5" y="366.51" width="155.16" height="155.15" color-interpolation-filters="sRGB" filterUnits="userSpaceOnUse"><feFlood flood-color="#fff" result="bg"/><feBlend in="SourceGraphic" in2="bg"/></filter><filter id="luminosity-noclip-2" x="1367.5" y="-16087" width="100.16" height="32766" color-interpolation-filters="sRGB" filterUnits="userSpaceOnUse"><feFlood flood-color="#fff" result="bg"/><feBlend in="SourceGraphic" in2="bg"/></filter><mask id="mask-1" x="1367.5" y="-16087" width="100.16" height="32766" maskUnits="userSpaceOnUse"/><linearGradient id="_名称未設定グラデーション_721" x1="-11145.66" y1="416.59" x2="-11045.5" y2="416.59" gradientTransform="translate(-9678) rotate(-180) scale(1 -1)" gradientUnits="userSpaceOnUse"><stop offset="0" stop-color="#333"/><stop offset=".2" stop-color="#6d6d6d"/><stop offset=".4" stop-color="#a1a1a1"/><stop offset=".58" stop-color="#c9c9c9"/><stop offset=".75" stop-color="#e7e7e7"/><stop offset=".89" stop-color="#f8f8f8"/><stop offset="1" stop-color="#fff"/></linearGradient><mask id="mask" x="1312.5" y="366.51" width="155.16" height="155.15" maskUnits="userSpaceOnUse"><g class="cls-28"><g class="cls-13"><path class="cls-47" d="m1369.8,466.66c.59,0,1.18-.22,1.62-.67l95.56-95.56c.9-.9.9-2.35,0-3.25-.9-.9-2.35-.9-3.25,0l-95.56,95.56c-.9.9-.9,2.35,0,3.25.45.45,1.04.67,1.62.67Z"/></g></g></mask><linearGradient id="_名称未設定グラデーション_124" x1="-11145.66" y1="444.09" x2="-10990.5" y2="444.09" gradientTransform="translate(-9678) rotate(-180) scale(1 -1)" gradientUnits="userSpaceOnUse"><stop offset="0" stop-color="#fff"/><stop offset="1" stop-color="#fff"/></linearGradient><filter id="luminosity-noclip-3" x="1314.95" y="331.2" width="218.09" height="218.09" color-interpolation-filters="sRGB" filterUnits="userSpaceOnUse"><feFlood flood-color="#fff" result="bg"/><feBlend in="SourceGraphic" in2="bg"/></filter><filter id="luminosity-noclip-4" x="1369.95" y="-16087" width="163.09" height="32766" color-interpolation-filters="sRGB" filterUnits="userSpaceOnUse"><feFlood flood-color="#fff" result="bg"/><feBlend in="SourceGraphic" in2="bg"/></filter><mask id="mask-3" x="1369.95" y="-16087" width="163.09" height="32766" maskUnits="userSpaceOnUse"/><linearGradient id="_名称未設定グラデーション_721-2" x1="-11211.04" y1="412.75" x2="-11047.95" y2="412.75" xlink:href="#_名称未設定グラデーション_721"/><mask id="mask-2" x="1314.95" y="331.2" width="218.09" height="218.09" maskUnits="userSpaceOnUse"><g class="cls-25"><g class="cls-8"><path class="cls-41" d="m1372.25,494.29c.59,0,1.18-.22,1.62-.67l158.5-158.5c.9-.9.9-2.35,0-3.25-.9-.9-2.35-.9-3.25,0l-158.5,158.5c-.9.9-.9,2.35,0,3.25.45.45,1.04.67,1.62.67Z"/></g></g></mask><linearGradient id="_名称未設定グラデーション_124-2" x1="-11211.04" y1="440.25" x2="-10992.95" y2="440.25" xlink:href="#_名称未設定グラデーション_124"/><linearGradient id="_名称未設定グラデーション_83" x1="1900.84" y1="11797.57" x2="1741.97" y2="12381.49" gradientTransform="translate(-2414.1 29900.02) scale(1.5 -2.45)" gradientUnits="userSpaceOnUse"><stop offset="0" stop-color="#00a0ff"/><stop offset=".67" stop-color="#005fff"/><stop offset="1" stop-color="#0045ff"/></linearGradient><linearGradient id="_名称未設定グラデーション_82" x1="8911.23" y1="13884.51" x2="10193.21" y2="13884.51" gradientTransform="translate(5295.86 17308.07) rotate(-32.3) scale(1.35 -1.22) skewX(-23.21)" gradientUnits="userSpaceOnUse"><stop offset=".22" stop-color="#fff"/><stop offset=".27" stop-color="#f8f8f8"/><stop offset=".35" stop-color="#e5e5e5"/><stop offset=".43" stop-color="#c6c6c6"/><stop offset=".52" stop-color="#9b9b9b"/><stop offset=".63" stop-color="#646464"/><stop offset=".73" stop-color="#212121"/><stop offset=".78" stop-color="#000"/></linearGradient><mask id="mask-4" x="-364.37" y="-373.91" width="1876.37" height="1513.56" maskUnits="userSpaceOnUse"><rect class="cls-49" x="168.57" y="-329.88" width="328.01" height="1485.04" transform="translate(389.19 -114.31) rotate(45)"/><rect class="cls-48" x="93.3" y="-339.15" width="528.74" height="1513.51" transform="translate(400.05 -130.6) rotate(45)"/></mask><clipPath id="clippath-1"><rect class="cls-1" x="0" y="0" width="1512" height="852"/></clipPath><linearGradient id="_新規グラデーションスウォッチ_8-2" x1="1790.65" y1="11812.82" x2="1790.65" y2="12420.02" gradientTransform="translate(-2293.24 29900.72) scale(1.5 -2.45)" xlink:href="#_新規グラデーションスウォッチ_8"/><filter id="luminosity-noclip-5" x="882.66" y="-3.04" width="149.03" height="149.04" color-interpolation-filters="sRGB" filterUnits="userSpaceOnUse"><feFlood flood-color="#fff" result="bg"/><feBlend in="SourceGraphic" in2="bg"/></filter><filter id="luminosity-noclip-6" x="882.66" y="-16087" width="149.03" height="32766" color-interpolation-filters="sRGB" filterUnits="userSpaceOnUse"><feFlood flood-color="#fff" result="bg"/><feBlend in="SourceGraphic" in2="bg"/></filter><mask id="mask-6" x="882.66" y="-16087" width="149.03" height="32766" maskUnits="userSpaceOnUse"/><linearGradient id="_名称未設定グラデーション_721-3" x1="-10709.69" y1="71.48" x2="-10560.66" y2="71.48" xlink:href="#_名称未設定グラデーション_721"/><mask id="mask-5" x="882.66" y="-3.04" width="149.03" height="149.04" maskUnits="userSpaceOnUse"><g class="cls-26"><g class="cls-9"><path class="cls-40" d="m886.48,146h0c-.98,0-1.96-.38-2.7-1.13h0c-1.49-1.49-1.49-3.92,0-5.42h0c1.49-1.49,3.92-1.49,5.42,0h0c1.49,1.49,1.49,3.92,0,5.42-.75.75-1.73,1.13-2.71,1.13Zm15.71-15.71h0c-.98,0-1.96-.38-2.71-1.13h0c-1.49-1.49-1.49-3.91,0-5.42h0c1.5-1.49,3.92-1.49,5.42,0h0c1.49,1.5,1.49,3.92,0,5.42-.75.75-1.73,1.13-2.71,1.13Zm15.71-15.71h0c-.98,0-1.96-.37-2.71-1.12h0c-1.49-1.49-1.49-3.92,0-5.42h0c1.49-1.5,3.92-1.5,5.42,0h0c1.49,1.49,1.49,3.92,0,5.42-.74.75-1.72,1.12-2.7,1.12Zm15.7-15.7h0c-.98,0-1.96-.38-2.7-1.13h0c-1.5-1.49-1.5-3.92,0-5.42h0c1.49-1.49,3.92-1.49,5.42,0h0c1.49,1.49,1.49,3.92,0,5.42-.75.75-1.73,1.13-2.71,1.13Zm15.71-15.71h0c-.98,0-1.96-.38-2.71-1.12h0c-1.49-1.49-1.49-3.92,0-5.42h0c1.5-1.5,3.92-1.5,5.42,0h0c1.5,1.49,1.5,3.92,0,5.42-.74.74-1.72,1.12-2.7,1.12Zm15.7-15.7h0c-.98,0-1.96-.38-2.7-1.13h0c-1.5-1.49-1.5-3.92,0-5.42h0c1.49-1.49,3.92-1.49,5.42,0h0c1.49,1.49,1.49,3.92,0,5.42-.75.75-1.73,1.13-2.71,1.13Zm15.71-15.71h0c-.98,0-1.96-.38-2.71-1.12h0c-1.49-1.5-1.49-3.92,0-5.42h0c1.5-1.49,3.92-1.49,5.42,0h0c1.49,1.5,1.49,3.92,0,5.42-.75.74-1.73,1.12-2.71,1.12Zm15.71-15.71h0c-.98,0-1.96-.37-2.71-1.12h0c-1.49-1.49-1.49-3.92,0-5.42h0c1.49-1.5,3.92-1.5,5.42,0h0c1.49,1.49,1.49,3.92,0,5.42-.74.75-1.72,1.12-2.7,1.12Zm15.7-15.7h0c-.98,0-1.96-.38-2.7-1.13h0c-1.5-1.49-1.5-3.92,0-5.42h0c1.49-1.49,3.92-1.49,5.42,0h0c1.49,1.49,1.49,3.92,0,5.42-.75.75-1.73,1.13-2.71,1.13Zm15.71-15.71h0c-.98,0-1.96-.38-2.71-1.12h0c-1.49-1.5-1.49-3.92,0-5.42h0c1.5-1.49,3.92-1.49,5.42,0h0c1.5,1.5,1.5,3.92,0,5.42-.74.74-1.72,1.12-2.7,1.12Z"/></g></g></mask><linearGradient id="_名称未設定グラデーション_124-3" x1="-10709.69" y1="71.48" x2="-10560.66" y2="71.48" xlink:href="#_名称未設定グラデーション_124"/><filter id="luminosity-noclip-7" x="846.67" y="55.02" width="86.2" height="86.2" color-interpolation-filters="sRGB" filterUnits="userSpaceOnUse"><feFlood flood-color="#fff" result="bg"/><feBlend in="SourceGraphic" in2="bg"/></filter><filter id="luminosity-noclip-8" x="846.67" y="-16087" width="86.2" height="32766" color-interpolation-filters="sRGB" filterUnits="userSpaceOnUse"><feFlood flood-color="#fff" result="bg"/><feBlend in="SourceGraphic" in2="bg"/></filter><mask id="mask-8" x="846.67" y="-16087" width="86.2" height="32766" maskUnits="userSpaceOnUse"/><linearGradient id="_名称未設定グラデーション_721-4" x1="-10610.87" y1="98.12" x2="-10524.67" y2="98.12" xlink:href="#_名称未設定グラデーション_721"/><mask id="mask-7" x="846.67" y="55.02" width="86.2" height="86.2" maskUnits="userSpaceOnUse"><g class="cls-24"><g class="cls-6"><path class="cls-45" d="m850.5,141.22h0c-.98,0-1.96-.38-2.7-1.13h0c-1.5-1.49-1.5-3.92,0-5.42h0c1.49-1.49,3.92-1.49,5.42,0h0c1.49,1.49,1.49,3.92,0,5.42-.75.75-1.73,1.13-2.71,1.13Zm15.71-15.71h0c-.98,0-1.96-.38-2.71-1.12h0c-1.49-1.5-1.49-3.92,0-5.42h0c1.49-1.5,3.92-1.5,5.42,0h0c1.5,1.49,1.5,3.91,0,5.42-.74.74-1.72,1.12-2.7,1.12Zm15.7-15.71h0c-.98,0-1.96-.37-2.7-1.12h0c-1.49-1.49-1.49-3.92,0-5.42h0c1.49-1.49,3.92-1.49,5.42,0h0c1.49,1.49,1.49,3.92,0,5.42-.75.75-1.73,1.12-2.71,1.12Zm15.71-15.7h0c-.98,0-1.96-.38-2.71-1.13h0c-1.49-1.49-1.49-3.91,0-5.42h0c1.5-1.49,3.92-1.49,5.42,0h0c1.5,1.5,1.5,3.92,0,5.42-.74.75-1.72,1.13-2.7,1.13Zm15.71-15.71h0c-.98,0-1.96-.38-2.71-1.12h0c-1.49-1.5-1.49-3.92,0-5.42h0c1.49-1.5,3.92-1.5,5.42,0h0c1.49,1.49,1.49,3.91,0,5.42-.74.74-1.72,1.12-2.7,1.12Zm15.7-15.7h0c-.98,0-1.96-.38-2.7-1.13h0c-1.5-1.49-1.5-3.92,0-5.42h0c1.49-1.49,3.91-1.49,5.42,0h0c1.49,1.49,1.49,3.92,0,5.42-.75.75-1.73,1.13-2.71,1.13Z"/></g></g></mask><linearGradient id="_名称未設定グラデーション_124-4" x1="-10610.87" y1="98.12" x2="-10524.67" y2="98.12" xlink:href="#_名称未設定グラデーション_124"/><filter id="luminosity-noclip-9" x="-58" y="245.01" width="100.16" height="100.15" color-interpolation-filters="sRGB" filterUnits="userSpaceOnUse"><feFlood flood-color="#fff" result="bg"/><feBlend in="SourceGraphic" in2="bg"/></filter><filter id="luminosity-noclip-10" x="-58" y="-16087" width="100.16" height="32766" color-interpolation-filters="sRGB" filterUnits="userSpaceOnUse"><feFlood flood-color="#fff" result="bg"/><feBlend in="SourceGraphic" in2="bg"/></filter><mask id="mask-10" x="-58" y="-16087" width="100.16" height="32766" maskUnits="userSpaceOnUse"/><linearGradient id="_名称未設定グラデーション_721-5" x1="-9720.16" y1="295.09" x2="-9620" y2="295.09" xlink:href="#_名称未設定グラデーション_721"/><mask id="mask-9" x="-58" y="245.01" width="100.16" height="100.15" maskUnits="userSpaceOnUse"><g class="cls-23"><g class="cls-14"><path class="cls-42" d="m-55.7,345.16c.59,0,1.18-.22,1.62-.67l95.56-95.56c.9-.9.9-2.35,0-3.25-.9-.9-2.35-.9-3.25,0l-95.56,95.56c-.9.9-.9,2.35,0,3.25.45.45,1.04.67,1.62.67Z"/></g></g></mask><linearGradient id="_名称未設定グラデーション_124-5" x1="-9720.16" y1="295.09" x2="-9620" y2="295.09" xlink:href="#_名称未設定グラデーション_124"/><filter id="luminosity-noclip-11" x="-55.55" y="209.7" width="163.09" height="163.09" color-interpolation-filters="sRGB" filterUnits="userSpaceOnUse"><feFlood flood-color="#fff" result="bg"/><feBlend in="SourceGraphic" in2="bg"/></filter><filter id="luminosity-noclip-12" x="-55.55" y="-16087" width="163.09" height="32766" color-interpolation-filters="sRGB" filterUnits="userSpaceOnUse"><feFlood flood-color="#fff" result="bg"/><feBlend in="SourceGraphic" in2="bg"/></filter><mask id="mask-12" x="-55.55" y="-16087" width="163.09" height="32766" maskUnits="userSpaceOnUse"/><linearGradient id="_名称未設定グラデーション_721-6" x1="-9785.54" y1="291.25" x2="-9622.45" y2="291.25" xlink:href="#_名称未設定グラデーション_721"/><mask id="mask-11" x="-55.55" y="209.7" width="163.09" height="163.09" maskUnits="userSpaceOnUse"><g class="cls-39"><g class="cls-17"><path class="cls-44" d="m-53.25,372.79c.59,0,1.18-.22,1.62-.67L106.87,213.62c.9-.9.9-2.35,0-3.25-.9-.9-2.35-.9-3.25,0L-54.88,368.87c-.9.9-.9,2.35,0,3.25.45.45,1.04.67,1.62.67Z"/></g></g></mask><linearGradient id="_名称未設定グラデーション_124-6" x1="-9785.54" y1="291.25" x2="-9622.45" y2="291.25" xlink:href="#_名称未設定グラデーション_124"/><filter id="luminosity-noclip-13" x="172.24" y="754.16" width="149.03" height="149.03" color-interpolation-filters="sRGB" filterUnits="userSpaceOnUse"><feFlood flood-color="#fff" result="bg"/><feBlend in="SourceGraphic" in2="bg"/></filter><filter id="luminosity-noclip-14" x="172.24" y="-16087" width="149.03" height="32766" color-interpolation-filters="sRGB" filterUnits="userSpaceOnUse"><feFlood flood-color="#fff" result="bg"/><feBlend in="SourceGraphic" in2="bg"/></filter><mask id="mask-14" x="172.24" y="-16087" width="149.03" height="32766" maskUnits="userSpaceOnUse"/><linearGradient id="_名称未設定グラデーション_721-7" x1="-9999.27" y1="828.67" x2="-9850.24" y2="828.67" xlink:href="#_名称未設定グラデーション_721"/><mask id="mask-13" x="172.24" y="754.16" width="149.03" height="149.03" maskUnits="userSpaceOnUse"><g class="cls-38"><g class="cls-19"><path class="cls-46" d="m176.07,903.19h0c-.98,0-1.96-.38-2.71-1.13h0c-1.49-1.49-1.49-3.91,0-5.42h0c1.49-1.49,3.92-1.49,5.42,0h0c1.5,1.5,1.5,3.92,0,5.42-.74.75-1.72,1.13-2.7,1.13Zm15.7-15.71h0c-.98,0-1.96-.38-2.7-1.12h0c-1.49-1.5-1.49-3.92,0-5.42h0c1.49-1.49,3.92-1.49,5.42,0h0c1.49,1.49,1.49,3.91,0,5.42-.75.74-1.73,1.12-2.71,1.12Zm15.71-15.7h0c-.98,0-1.96-.38-2.71-1.13h0c-1.49-1.49-1.49-3.92,0-5.42h0c1.5-1.49,3.92-1.49,5.42,0h0c1.5,1.49,1.5,3.92,0,5.42-.74.75-1.72,1.13-2.7,1.13Zm15.71-15.71h0c-.98,0-1.96-.38-2.71-1.13h0c-1.49-1.49-1.49-3.91,0-5.42h0c1.49-1.49,3.92-1.49,5.42,0h0c1.49,1.5,1.49,3.92,0,5.42-.74.75-1.73,1.13-2.7,1.13Zm15.7-15.71h0c-.98,0-1.96-.37-2.7-1.12h0c-1.5-1.49-1.5-3.92,0-5.42h0c1.49-1.49,3.92-1.49,5.42,0h0c1.49,1.49,1.49,3.92,0,5.42-.75.75-1.73,1.12-2.71,1.12Zm15.71-15.7h0c-.98,0-1.96-.37-2.71-1.13h0c-1.49-1.49-1.49-3.91,0-5.42h0c1.49-1.49,3.92-1.49,5.42,0h0c1.5,1.5,1.5,3.92,0,5.42-.74.75-1.72,1.13-2.7,1.13Zm15.7-15.71h0c-.98,0-1.96-.38-2.7-1.12h0c-1.5-1.49-1.5-3.92,0-5.42h0c1.49-1.5,3.92-1.5,5.42,0h0c1.49,1.49,1.49,3.92,0,5.42-.75.74-1.73,1.12-2.71,1.12Zm15.71-15.7h0c-.98,0-1.96-.38-2.71-1.13h0c-1.49-1.49-1.49-3.92,0-5.42h0c1.5-1.49,3.92-1.49,5.42,0h0c1.49,1.49,1.49,3.92,0,5.42-.75.75-1.73,1.13-2.71,1.13Zm15.71-15.71h0c-.98,0-1.96-.38-2.71-1.13h0c-1.49-1.49-1.49-3.91,0-5.41h0c1.49-1.5,3.92-1.5,5.42,0h0c1.5,1.49,1.5,3.91,0,5.41-.74.75-1.72,1.13-2.7,1.13Zm15.7-15.71h0c-.98,0-1.96-.38-2.7-1.12h0c-1.5-1.49-1.5-3.92,0-5.42h0c1.49-1.49,3.91-1.49,5.42,0h0c1.49,1.49,1.49,3.92,0,5.42-.75.74-1.73,1.12-2.71,1.12Z"/></g></g></mask><linearGradient id="_名称未設定グラデーション_124-7" x1="-9999.27" y1="828.67" x2="-9850.24" y2="828.67" xlink:href="#_名称未設定グラデーション_124"/><filter id="luminosity-noclip-15" x="230.29" y="718.16" width="86.2" height="86.2" color-interpolation-filters="sRGB" filterUnits="userSpaceOnUse"><feFlood flood-color="#fff" result="bg"/><feBlend in="SourceGraphic" in2="bg"/></filter><filter id="luminosity-noclip-16" x="230.29" y="-16087" width="86.2" height="32766" color-interpolation-filters="sRGB" filterUnits="userSpaceOnUse"><feFlood flood-color="#fff" result="bg"/><feBlend in="SourceGraphic" in2="bg"/></filter><mask id="mask-16" x="230.29" y="-16087" width="86.2" height="32766" maskUnits="userSpaceOnUse"/><linearGradient id="_名称未設定グラデーション_721-8" x1="-9994.49" y1="761.26" x2="-9908.29" y2="761.26" xlink:href="#_名称未設定グラデーション_721"/><mask id="mask-15" x="230.29" y="718.16" width="86.2" height="86.2" maskUnits="userSpaceOnUse"><g class="cls-37"><g class="cls-15"><path class="cls-43" d="m234.11,804.36h0c-.98,0-1.96-.37-2.7-1.12h0c-1.5-1.5-1.5-3.92,0-5.42h0c1.49-1.5,3.92-1.5,5.42,0h0c1.49,1.49,1.49,3.91,0,5.42-.75.75-1.73,1.12-2.71,1.12Zm15.71-15.7h0c-.98,0-1.96-.38-2.71-1.13h0c-1.49-1.49-1.49-3.92,0-5.42h0c1.5-1.49,3.92-1.49,5.42,0h0c1.5,1.49,1.5,3.92,0,5.42-.74.75-1.72,1.13-2.7,1.13Zm15.7-15.71h0c-.98,0-1.96-.38-2.7-1.12h0c-1.49-1.5-1.49-3.92,0-5.42h0c1.49-1.5,3.92-1.5,5.42,0h0c1.49,1.49,1.49,3.91,0,5.42-.75.74-1.73,1.12-2.71,1.12Zm15.71-15.71h0c-.98,0-1.96-.37-2.7-1.12h0c-1.5-1.49-1.5-3.92,0-5.42h0c1.49-1.49,3.91-1.49,5.42,0h0c1.49,1.49,1.49,3.92,0,5.42-.75.75-1.73,1.12-2.71,1.12Zm15.71-15.7h0c-.98,0-1.96-.37-2.71-1.13h0c-1.49-1.49-1.49-3.92,0-5.42h0c1.49-1.49,3.92-1.49,5.42,0h0c1.49,1.49,1.49,3.92,0,5.42-.74.75-1.72,1.13-2.7,1.13Zm15.7-15.71h0c-.98,0-1.96-.38-2.7-1.12h0c-1.5-1.5-1.5-3.92,0-5.42h0c1.49-1.5,3.92-1.5,5.42,0h0c1.49,1.49,1.49,3.91,0,5.42-.75.74-1.73,1.12-2.71,1.12Z"/></g></g></mask><linearGradient id="_名称未設定グラデーション_124-8" x1="-9994.49" y1="761.26" x2="-9908.29" y2="761.26" xlink:href="#_名称未設定グラデーション_124"/></defs><g id="bg"><g class="cls-22"><polygon class="cls-50" points="1234 852 475 852 1327 0 2086 0 1234 852"/><g class="cls-3"><g class="cls-21"><path class="cls-27" d="m1314.8,521.66c.59,0,1.18-.22,1.62-.67l150.56-150.56c.9-.9.9-2.35,0-3.25-.9-.9-2.35-.9-3.25,0l-150.56,150.56c-.9.9-.9,2.35,0,3.25.45.45,1.04.67,1.62.67Z"/></g><g class="cls-7"><path class="cls-34" d="m1317.25,549.29c.59,0,1.18-.22,1.62-.67l213.5-213.5c.9-.9.9-2.35,0-3.25-.9-.9-2.35-.9-3.25,0l-213.5,213.5c-.9.9-.9,2.35,0,3.25.45.45,1.04.67,1.62.67Z"/></g></g><g class="cls-11"><g class="cls-4"><rect class="cls-51" x="229.85" y="-475.42" width="328.01" height="1485.04" transform="translate(304.23 -200.27) rotate(45)"/></g></g><g class="cls-2"><g class="cls-12"><path class="cls-31" d="m886.48,146h0c-.98,0-1.96-.38-2.7-1.13h0c-1.49-1.49-1.49-3.92,0-5.42h0c1.49-1.49,3.92-1.49,5.42,0h0c1.49,1.49,1.49,3.92,0,5.42-.75.75-1.73,1.13-2.71,1.13Zm15.71-15.71h0c-.98,0-1.96-.38-2.71-1.13h0c-1.49-1.49-1.49-3.91,0-5.42h0c1.5-1.49,3.92-1.49,5.42,0h0c1.49,1.5,1.49,3.92,0,5.42-.75.75-1.73,1.13-2.71,1.13Zm15.71-15.71h0c-.98,0-1.96-.37-2.71-1.12h0c-1.49-1.49-1.49-3.92,0-5.42h0c1.49-1.5,3.92-1.5,5.42,0h0c1.49,1.49,1.49,3.92,0,5.42-.74.75-1.72,1.12-2.7,1.12Zm15.7-15.7h0c-.98,0-1.96-.38-2.7-1.13h0c-1.5-1.49-1.5-3.92,0-5.42h0c1.49-1.49,3.92-1.49,5.42,0h0c1.49,1.49,1.49,3.92,0,5.42-.75.75-1.73,1.13-2.71,1.13Zm15.71-15.71h0c-.98,0-1.96-.38-2.71-1.12h0c-1.49-1.49-1.49-3.92,0-5.42h0c1.5-1.5,3.92-1.5,5.42,0h0c1.5,1.49,1.5,3.92,0,5.42-.74.74-1.72,1.12-2.7,1.12Zm15.7-15.7h0c-.98,0-1.96-.38-2.7-1.13h0c-1.5-1.49-1.5-3.92,0-5.42h0c1.49-1.49,3.92-1.49,5.42,0h0c1.49,1.49,1.49,3.92,0,5.42-.75.75-1.73,1.13-2.71,1.13Zm15.71-15.71h0c-.98,0-1.96-.38-2.71-1.12h0c-1.49-1.5-1.49-3.92,0-5.42h0c1.5-1.49,3.92-1.49,5.42,0h0c1.49,1.5,1.49,3.92,0,5.42-.75.74-1.73,1.12-2.71,1.12Zm15.71-15.71h0c-.98,0-1.96-.37-2.71-1.12h0c-1.49-1.49-1.49-3.92,0-5.42h0c1.49-1.5,3.92-1.5,5.42,0h0c1.49,1.49,1.49,3.92,0,5.42-.74.75-1.72,1.12-2.7,1.12Zm15.7-15.7h0c-.98,0-1.96-.38-2.7-1.13h0c-1.5-1.49-1.5-3.92,0-5.42h0c1.49-1.49,3.92-1.49,5.42,0h0c1.49,1.49,1.49,3.92,0,5.42-.75.75-1.73,1.13-2.71,1.13Zm15.71-15.71h0c-.98,0-1.96-.38-2.71-1.12h0c-1.49-1.5-1.49-3.92,0-5.42h0c1.5-1.49,3.92-1.49,5.42,0h0c1.5,1.5,1.5,3.92,0,5.42-.74.74-1.72,1.12-2.7,1.12Z"/></g><g class="cls-10"><path class="cls-30" d="m850.5,141.22h0c-.98,0-1.96-.38-2.7-1.13h0c-1.5-1.49-1.5-3.92,0-5.42h0c1.49-1.49,3.92-1.49,5.42,0h0c1.49,1.49,1.49,3.92,0,5.42-.75.75-1.73,1.13-2.71,1.13Zm15.71-15.71h0c-.98,0-1.96-.38-2.71-1.12h0c-1.49-1.5-1.49-3.92,0-5.42h0c1.49-1.5,3.92-1.5,5.42,0h0c1.5,1.49,1.5,3.91,0,5.42-.74.74-1.72,1.12-2.7,1.12Zm15.7-15.71h0c-.98,0-1.96-.37-2.7-1.12h0c-1.49-1.49-1.49-3.92,0-5.42h0c1.49-1.49,3.92-1.49,5.42,0h0c1.49,1.49,1.49,3.92,0,5.42-.75.75-1.73,1.12-2.71,1.12Zm15.71-15.7h0c-.98,0-1.96-.38-2.71-1.13h0c-1.49-1.49-1.49-3.91,0-5.42h0c1.5-1.49,3.92-1.49,5.42,0h0c1.5,1.5,1.5,3.92,0,5.42-.74.75-1.72,1.13-2.7,1.13Zm15.71-15.71h0c-.98,0-1.96-.38-2.71-1.12h0c-1.49-1.5-1.49-3.92,0-5.42h0c1.49-1.5,3.92-1.5,5.42,0h0c1.49,1.49,1.49,3.91,0,5.42-.74.74-1.72,1.12-2.7,1.12Zm15.7-15.7h0c-.98,0-1.96-.38-2.7-1.13h0c-1.5-1.49-1.5-3.92,0-5.42h0c1.49-1.49,3.91-1.49,5.42,0h0c1.49,1.49,1.49,3.92,0,5.42-.75.75-1.73,1.13-2.71,1.13Z"/></g></g><g class="cls-3"><g class="cls-5"><path class="cls-36" d="m-55.7,345.16c.59,0,1.18-.22,1.62-.67l95.56-95.56c.9-.9.9-2.35,0-3.25-.9-.9-2.35-.9-3.25,0l-95.56,95.56c-.9.9-.9,2.35,0,3.25.45.45,1.04.67,1.62.67Z"/></g><g class="cls-16"><path class="cls-35" d="m-53.25,372.79c.59,0,1.18-.22,1.62-.67L106.87,213.62c.9-.9.9-2.35,0-3.25-.9-.9-2.35-.9-3.25,0L-54.88,368.87c-.9.9-.9,2.35,0,3.25.45.45,1.04.67,1.62.67Z"/></g></g><g class="cls-3"><g class="cls-18"><path class="cls-33" d="m176.07,903.19h0c-.98,0-1.96-.38-2.71-1.13h0c-1.49-1.49-1.49-3.91,0-5.42h0c1.49-1.49,3.92-1.49,5.42,0h0c1.5,1.5,1.5,3.92,0,5.42-.74.75-1.72,1.13-2.7,1.13Zm15.7-15.71h0c-.98,0-1.96-.38-2.7-1.12h0c-1.49-1.5-1.49-3.92,0-5.42h0c1.49-1.49,3.92-1.49,5.42,0h0c1.49,1.49,1.49,3.91,0,5.42-.75.74-1.73,1.12-2.71,1.12Zm15.71-15.7h0c-.98,0-1.96-.38-2.71-1.13h0c-1.49-1.49-1.49-3.92,0-5.42h0c1.5-1.49,3.92-1.49,5.42,0h0c1.5,1.49,1.5,3.92,0,5.42-.74.75-1.72,1.13-2.7,1.13Zm15.71-15.71h0c-.98,0-1.96-.38-2.71-1.13h0c-1.49-1.49-1.49-3.91,0-5.42h0c1.49-1.49,3.92-1.49,5.42,0h0c1.49,1.5,1.49,3.92,0,5.42-.74.75-1.73,1.13-2.7,1.13Zm15.7-15.71h0c-.98,0-1.96-.37-2.7-1.12h0c-1.5-1.49-1.5-3.92,0-5.42h0c1.49-1.49,3.92-1.49,5.42,0h0c1.49,1.49,1.49,3.92,0,5.42-.75.75-1.73,1.12-2.71,1.12Zm15.71-15.7h0c-.98,0-1.96-.37-2.71-1.13h0c-1.49-1.49-1.49-3.91,0-5.42h0c1.49-1.49,3.92-1.49,5.42,0h0c1.5,1.5,1.5,3.92,0,5.42-.74.75-1.72,1.13-2.7,1.13Zm15.7-15.71h0c-.98,0-1.96-.38-2.7-1.12h0c-1.5-1.49-1.5-3.92,0-5.42h0c1.49-1.5,3.92-1.5,5.42,0h0c1.49,1.49,1.49,3.92,0,5.42-.75.74-1.73,1.12-2.71,1.12Zm15.71-15.7h0c-.98,0-1.96-.38-2.71-1.13h0c-1.49-1.49-1.49-3.92,0-5.42h0c1.5-1.49,3.92-1.49,5.42,0h0c1.49,1.49,1.49,3.92,0,5.42-.75.75-1.73,1.13-2.71,1.13Zm15.71-15.71h0c-.98,0-1.96-.38-2.71-1.13h0c-1.49-1.49-1.49-3.91,0-5.41h0c1.49-1.5,3.92-1.5,5.42,0h0c1.5,1.49,1.5,3.91,0,5.41-.74.75-1.72,1.13-2.7,1.13Zm15.7-15.71h0c-.98,0-1.96-.38-2.7-1.12h0c-1.5-1.49-1.5-3.92,0-5.42h0c1.49-1.49,3.91-1.49,5.42,0h0c1.49,1.49,1.49,3.92,0,5.42-.75.74-1.73,1.12-2.71,1.12Z"/></g><g class="cls-20"><path class="cls-32" d="m234.11,804.36h0c-.98,0-1.96-.37-2.7-1.12h0c-1.5-1.5-1.5-3.92,0-5.42h0c1.49-1.5,3.92-1.5,5.42,0h0c1.49,1.49,1.49,3.91,0,5.42-.75.75-1.73,1.12-2.71,1.12Zm15.71-15.7h0c-.98,0-1.96-.38-2.71-1.13h0c-1.49-1.49-1.49-3.92,0-5.42h0c1.5-1.49,3.92-1.49,5.42,0h0c1.5,1.49,1.5,3.92,0,5.42-.74.75-1.72,1.13-2.7,1.13Zm15.7-15.71h0c-.98,0-1.96-.38-2.7-1.12h0c-1.49-1.5-1.49-3.92,0-5.42h0c1.49-1.5,3.92-1.5,5.42,0h0c1.49,1.49,1.49,3.91,0,5.42-.75.74-1.73,1.12-2.71,1.12Zm15.71-15.71h0c-.98,0-1.96-.37-2.7-1.12h0c-1.5-1.49-1.5-3.92,0-5.42h0c1.49-1.49,3.91-1.49,5.42,0h0c1.49,1.49,1.49,3.92,0,5.42-.75.75-1.73,1.12-2.71,1.12Zm15.71-15.7h0c-.98,0-1.96-.37-2.71-1.13h0c-1.49-1.49-1.49-3.92,0-5.42h0c1.49-1.49,3.92-1.49,5.42,0h0c1.49,1.49,1.49,3.92,0,5.42-.74.75-1.72,1.13-2.7,1.13Zm15.7-15.71h0c-.98,0-1.96-.38-2.7-1.12h0c-1.5-1.5-1.5-3.92,0-5.42h0c1.49-1.5,3.92-1.5,5.42,0h0c1.49,1.49,1.49,3.91,0,5.42-.75.74-1.73,1.12-2.71,1.12Z"/></g></g><g class="cls-2"><path class="cls-29" d="m1347.41,388.87c1.46-1.46,1.46-3.83,0-5.29s-3.83-1.46-5.29,0-1.46,3.83,0,5.29,3.83,1.46,5.29,0Z"/><path class="cls-29" d="m1364.66,371.63c1.46-1.46,1.46-3.83,0-5.29s-3.83-1.46-5.29,0-1.46,3.83,0,5.29,3.83,1.46,5.29,0Z"/><path class="cls-29" d="m1381.9,354.38c1.46-1.46,1.46-3.83,0-5.29s-3.83-1.46-5.29,0-1.46,3.83,0,5.29,3.83,1.46,5.29,0Z"/><path class="cls-29" d="m1330.16,371.63c1.46-1.46,1.46-3.83,0-5.29s-3.83-1.46-5.29,0-1.46,3.83,0,5.29,3.83,1.46,5.29,0Z"/><path class="cls-29" d="m1347.41,354.38c1.46-1.46,1.46-3.83,0-5.29s-3.83-1.46-5.29,0-1.46,3.83,0,5.29,3.83,1.46,5.29,0Z"/><path class="cls-29" d="m1364.66,337.13c1.46-1.46,1.46-3.83,0-5.29s-3.83-1.46-5.29,0-1.46,3.83,0,5.29,3.83,1.46,5.29,0Z"/><path class="cls-29" d="m1312.92,354.38c1.46-1.46,1.46-3.83,0-5.29s-3.83-1.46-5.29,0-1.46,3.83,0,5.29,3.83,1.46,5.29,0Z"/><path class="cls-29" d="m1330.16,337.13c1.46-1.46,1.46-3.83,0-5.29s-3.83-1.46-5.29,0-1.46,3.83,0,5.29,3.83,1.46,5.29,0Z"/><path class="cls-29" d="m1347.41,319.89c1.46-1.46,1.46-3.83,0-5.29s-3.83-1.46-5.29,0-1.46,3.83,0,5.29,3.83,1.46,5.29,0Z"/><path class="cls-29" d="m1295.67,337.13c1.46-1.46,1.46-3.83,0-5.29s-3.83-1.46-5.29,0-1.46,3.83,0,5.29c1.46,1.46,3.83,1.46,5.29,0Z"/><path class="cls-29" d="m1312.92,319.89c1.46-1.46,1.46-3.83,0-5.29s-3.83-1.46-5.29,0-1.46,3.83,0,5.29,3.83,1.46,5.29,0Z"/><path class="cls-29" d="m1330.16,302.64c1.46-1.46,1.46-3.83,0-5.29s-3.83-1.46-5.29,0-1.46,3.83,0,5.29,3.83,1.46,5.29,0Z"/></g><g class="cls-2"><path class="cls-29" d="m137.27,192.41c1.46-1.46,1.46-3.83,0-5.29s-3.83-1.46-5.29,0-1.46,3.83,0,5.29,3.83,1.46,5.29,0Z"/><path class="cls-29" d="m154.52,175.16c1.46-1.46,1.46-3.83,0-5.29s-3.83-1.46-5.29,0-1.46,3.83,0,5.29,3.83,1.46,5.29,0Z"/><path class="cls-29" d="m171.76,157.92c1.46-1.46,1.46-3.83,0-5.29s-3.83-1.46-5.29,0-1.46,3.83,0,5.29,3.83,1.46,5.29,0Z"/><path class="cls-29" d="m120.02,175.16c1.46-1.46,1.46-3.83,0-5.29s-3.83-1.46-5.29,0-1.46,3.83,0,5.29,3.83,1.46,5.29,0Z"/><path class="cls-29" d="m137.27,157.92c1.46-1.46,1.46-3.83,0-5.29s-3.83-1.46-5.29,0-1.46,3.83,0,5.29,3.83,1.46,5.29,0Z"/><path class="cls-29" d="m154.52,140.67c1.46-1.46,1.46-3.83,0-5.29s-3.83-1.46-5.29,0-1.46,3.83,0,5.29,3.83,1.46,5.29,0Z"/><path class="cls-29" d="m102.78,157.92c1.46-1.46,1.46-3.83,0-5.29s-3.83-1.46-5.29,0-1.46,3.83,0,5.29,3.83,1.46,5.29,0Z"/><path class="cls-29" d="m120.02,140.67c1.46-1.46,1.46-3.83,0-5.29s-3.83-1.46-5.29,0-1.46,3.83,0,5.29,3.83,1.46,5.29,0Z"/><path class="cls-29" d="m137.27,123.42c1.46-1.46,1.46-3.83,0-5.29s-3.83-1.46-5.29,0-1.46,3.83,0,5.29,3.83,1.46,5.29,0Z"/><path class="cls-29" d="m85.53,140.67c1.46-1.46,1.46-3.83,0-5.29s-3.83-1.46-5.29,0-1.46,3.83,0,5.29,3.83,1.46,5.29,0Z"/><path class="cls-29" d="m102.78,123.42c1.46-1.46,1.46-3.83,0-5.29s-3.83-1.46-5.29,0-1.46,3.83,0,5.29,3.83,1.46,5.29,0Z"/><path class="cls-29" d="m120.02,106.18c1.46-1.46,1.46-3.83,0-5.29s-3.83-1.46-5.29,0-1.46,3.83,0,5.29,3.83,1.46,5.29,0Z"/></g></g></g></svg>