<?xml version="1.0" encoding="UTF-8"?><svg id="_レイヤー_2" xmlns="http://www.w3.org/2000/svg" xmlns:xlink="http://www.w3.org/1999/xlink" viewBox="0 0 253 351"><defs><style>.cls-1,.cls-2{fill:none;}.cls-3{fill:url(#_新規グラデーションスウォッチ_8);}.cls-2{clip-path:url(#clippath);}.cls-4{fill:url(#_新規グラデーションスウォッチ_8-2);}.cls-5{fill:url(#_新規グラデーションスウォッチ_8-3);}</style><clipPath id="clippath"><rect class="cls-1" width="253" height="351"/></clipPath><linearGradient id="_新規グラデーションスウォッチ_8" x1="297.68" y1="764.46" x2="297.68" y2="913.5" gradientTransform="translate(457.36 909.96) rotate(-180)" gradientUnits="userSpaceOnUse"><stop offset="0" stop-color="#6496dc"/><stop offset=".1" stop-color="#6496dc" stop-opacity=".88"/><stop offset=".55" stop-color="#6496dc" stop-opacity=".41"/><stop offset=".86" stop-color="#6496dc" stop-opacity=".12"/><stop offset="1" stop-color="#6496dc" stop-opacity="0"/></linearGradient><linearGradient id="_新規グラデーションスウォッチ_8-2" x1="77.16" y1="-2150" x2="77.16" y2="-1866.28" gradientTransform="translate(148.33 -1736.28) rotate(-180)" xlink:href="#_新規グラデーションスウォッチ_8"/><linearGradient id="_新規グラデーションスウォッチ_8-3" x1="77.16" y1="-2150" x2="77.16" y2="-1866.28" gradientTransform="translate(148.33 -1736.28) rotate(-180)" xlink:href="#_新規グラデーションスウォッチ_8"/></defs><g id="design"><g class="cls-2"><path class="cls-3" d="m212.37-3.54h0c.98,0,1.96.38,2.7,1.13h0c1.49,1.49,1.49,3.92,0,5.42h0c-1.49,1.49-3.92,1.49-5.42,0h0c-1.49-1.49-1.49-3.92,0-5.42.75-.75,1.73-1.13,2.71-1.13Zm-15.71,15.71h0c.98,0,1.96.38,2.71,1.13h0c1.49,1.49,1.49,3.91,0,5.42h0c-1.5,1.49-3.92,1.49-5.42,0h0c-1.49-1.5-1.49-3.92,0-5.42.75-.75,1.73-1.13,2.71-1.13Zm-15.71,15.71h0c.98,0,1.96.37,2.71,1.12h0c1.49,1.49,1.49,3.92,0,5.42h0c-1.49,1.5-3.92,1.5-5.42,0h0c-1.49-1.49-1.49-3.92,0-5.42.74-.75,1.72-1.12,2.7-1.12Zm-15.7,15.7h0c.98,0,1.96.38,2.7,1.13h0c1.5,1.49,1.5,3.92,0,5.42h0c-1.49,1.49-3.92,1.49-5.42,0h0c-1.49-1.49-1.49-3.92,0-5.42.75-.75,1.73-1.13,2.71-1.13Zm-15.71,15.71h0c.98,0,1.96.38,2.71,1.12h0c1.49,1.49,1.49,3.92,0,5.42h0c-1.5,1.5-3.92,1.5-5.42,0h0c-1.5-1.49-1.5-3.92,0-5.42.74-.74,1.72-1.12,2.7-1.12Zm-15.7,15.7h0c.98,0,1.96.38,2.7,1.13h0c1.5,1.49,1.5,3.92,0,5.42h0c-1.49,1.49-3.92,1.49-5.42,0h0c-1.49-1.49-1.49-3.92,0-5.42.75-.75,1.73-1.13,2.71-1.13Zm-15.71,15.71h0c.98,0,1.96.38,2.71,1.12h0c1.49,1.5,1.49,3.92,0,5.42h0c-1.5,1.49-3.92,1.49-5.42,0h0c-1.49-1.5-1.49-3.92,0-5.42.75-.74,1.73-1.12,2.71-1.12Zm-15.71,15.71h0c.98,0,1.96.37,2.71,1.12h0c1.49,1.49,1.49,3.92,0,5.42h0c-1.49,1.5-3.92,1.5-5.42,0h0c-1.49-1.49-1.49-3.92,0-5.42.74-.75,1.72-1.12,2.7-1.12Zm-15.7,15.7h0c.98,0,1.96.38,2.7,1.13h0c1.5,1.49,1.5,3.92,0,5.42h0c-1.49,1.49-3.92,1.49-5.42,0h0c-1.49-1.49-1.49-3.92,0-5.42.75-.75,1.73-1.13,2.71-1.13Zm-15.71,15.71h0c.98,0,1.96.38,2.71,1.12h0c1.49,1.5,1.49,3.92,0,5.42h0c-1.5,1.49-3.92,1.49-5.42,0h0c-1.5-1.5-1.5-3.92,0-5.42.74-.74,1.72-1.12,2.7-1.12Z"/><path class="cls-3" d="m248.36,1.24h0c.98,0,1.96.38,2.7,1.13h0c1.5,1.49,1.5,3.92,0,5.42h0c-1.49,1.49-3.92,1.49-5.42,0h0c-1.49-1.49-1.49-3.92,0-5.42.75-.75,1.73-1.13,2.71-1.13Zm-15.71,15.71h0c.98,0,1.96.38,2.71,1.12h0c1.49,1.5,1.49,3.92,0,5.42h0c-1.49,1.5-3.92,1.5-5.42,0h0c-1.5-1.49-1.5-3.91,0-5.42.74-.74,1.72-1.12,2.7-1.12Zm-15.7,15.71h0c.98,0,1.96.37,2.7,1.12h0c1.49,1.49,1.49,3.92,0,5.42h0c-1.49,1.49-3.92,1.49-5.42,0h0c-1.49-1.49-1.49-3.92,0-5.42.75-.75,1.73-1.12,2.71-1.12Zm-15.71,15.7h0c.98,0,1.96.38,2.71,1.13h0c1.49,1.49,1.49,3.91,0,5.42h0c-1.5,1.49-3.92,1.49-5.42,0h0c-1.5-1.5-1.5-3.92,0-5.42.74-.75,1.72-1.13,2.7-1.13Zm-15.71,15.71h0c.98,0,1.96.38,2.71,1.12h0c1.49,1.5,1.49,3.92,0,5.42h0c-1.49,1.5-3.92,1.5-5.42,0h0c-1.49-1.49-1.49-3.91,0-5.42.74-.74,1.72-1.12,2.7-1.12Zm-15.7,15.7h0c.98,0,1.96.38,2.7,1.13h0c1.5,1.49,1.5,3.92,0,5.42h0c-1.49,1.49-3.91,1.49-5.42,0h0c-1.49-1.49-1.49-3.92,0-5.42.75-.75,1.73-1.13,2.71-1.13Z"/><path class="cls-4" d="m97.41,191.43c-1.02,0-2.05.39-2.83,1.17l-166.24,166.24c-1.56,1.56-1.56,4.09,0,5.65,1.56,1.56,4.09,1.56,5.65,0L100.23,198.25c1.56-1.56,1.56-4.09,0-5.65-.78-.78-1.8-1.17-2.83-1.17Z"/><path class="cls-5" d="m211.16,130c-1.02,0-2.05.39-2.83,1.17L-67.39,406.9c-1.56,1.56-1.56,4.09,0,5.65,1.56,1.56,4.09,1.56,5.65,0L213.98,136.82c1.56-1.56,1.56-4.09,0-5.65-.78-.78-1.8-1.17-2.83-1.17Z"/></g></g></svg>