<?xml version="1.0" encoding="UTF-8"?><svg id="_レイヤー_2" xmlns="http://www.w3.org/2000/svg" viewBox="0 0 543.11 276.59"><defs><style>.cls-1{fill:#fff;}</style></defs><g id="design"><path class="cls-1" d="m323.75,194.47c-7.31,3.39-14.04,6.45-20.7,9.66-1.59.77-3.14,1.88-4.32,3.19-1.33,1.48-2.73,1.73-3.87.42-1.12-1.28-1.24-3.08.66-4.08,6.36-3.34,12.63-6.91,19.19-9.83,8.37-3.73,8.49-3.5,5.83-12.27-.61-2-1.4-3.95-2.25-6.31-3.06,1.88-6.17,3.5-8.94,5.58-2.13,1.6-3.22.04-4.02-1.11-.98-1.41-.19-2.31,1.54-3.12,3.66-1.7,7.08-3.94,10.64-5.99-.85-5.74-1.77-11.42-2.46-17.13-.13-1.06.66-2.24,1.03-3.36,1.07,1.05,2.8,1.94,3.09,3.17.81,3.46.99,7.07,1.51,10.61.25,1.68.68,3.34,1.09,5.24,3.63-1.33,6.93-2.58,10.27-3.73.95-.33,2.08-.67,2.98-.43.94.25,1.7,1.19,2.54,1.84-.68.58-1.27,1.38-2.05,1.71-3.74,1.58-7.57,2.95-11.26,4.6-.7.32-1.5,1.73-1.34,2.44.93,4.37,2.12,8.67,3.39,13.62,8.31-4.03,16.46-7.97,24.52-11.88.44.72,1.07,1.75,1.76,2.88-6.57,5.76-15.91,8.78-25.33,13,5.93,22.85,9.04,46.49,17.72,69.72-1.65-1.22-3.34-1.8-3.73-2.86-2.38-6.55-4.58-13.18-6.61-19.85-1.18-3.87-1.91-7.88-2.84-11.82-1.38-5.8-2.77-11.6-4.15-17.41-1.26-5.31-2.49-10.63-3.87-16.5Z"/><path class="cls-1" d="m254.69,252.13c-1.56-1.1-1.7-1.93-.43-3.48,6.35-7.79,11.18-16.44,13.49-26.29.46-1.97.22-4.25-.23-6.27-.64-2.9-3.65-2.21-5.44-2.34-2.94-.21-5.96.7-8.73,1.1-.05,1.43.27,2.6-.16,3.35-3.07,5.38-6.15,10.77-9.53,15.96-1.64,2.51-4.16,4.37-7.47,3.37-5.68-1.71-6.87-6.89-3.62-12.29,5.62-9.33,14.13-14.16,24.79-15.67,4.98-.71,9.55-.26,12.62,4.06,1.38,1.94,2.78,4.81,2.37,6.91-2.34,12-7.22,22.81-16.66,31.09-.22.19-.54.28-1,.5Zm-5.78-35.46c-5.82,2.82-9.89,6.61-12.99,11.35-.89,1.36-2.89,3.41-.67,4.97,2.02,1.41,3.81-.29,5.21-1.83.61-.67,1.09-1.47,1.54-2.26,2.19-3.85,4.36-7.72,6.9-12.24Z"/><path class="cls-1" d="m517.85,181.63c2.79-1.83,5.61-3.42,8.14-5.39,2.95-2.29,5.76-4.8,8.44-7.41,2.31-2.26,1.75-3.97-1.42-4.66-8.24-1.79-16.41-.94-24.54.81-12.59,2.73-24.52,7.25-35.95,13.17-.71.37-1.72.92-2.28.68-1.21-.53-2.22-1.51-3.31-2.31.62-.78,1.09-1.95,1.89-2.27,9.02-3.62,17.96-7.52,27.19-10.53,9.89-3.22,20.14-5.12,30.66-4.05,4.44.45,8.82,1.18,12.18,4.78,2.02,2.17,1.86,4.56.42,6.3-4.6,5.56-10.09,10.11-16.97,12.71-2.02.76-3.48.24-4.44-1.84Z"/><path class="cls-1" d="m22.3,214.29c-5.03,1.79-9.56,3.26-13.97,5.03-2.85,1.14-4.09-.52-4.74-2.58-.17-.53,1.65-2.11,2.81-2.56,10.11-3.9,20.18-7.94,30.45-11.37,11.67-3.9,23.53-7.25,35.33-10.75,5.22-1.55,10.5-2.87,15.73-4.29.69,1.02,1.31,1.93,2.52,3.71-8.76,2.37-17.18,4.25-25.32,6.94-12.13,4.01-24.09,8.56-36.08,12.99-.72.27-1.48,1.47-1.55,2.3-.27,3.02-.26,6.07-.37,9.51,2.65-1.26,4.97-2.29,7.22-3.44,2.17-1.11,3.9-.18,4.69,1.58.89,1.98-.75,2.54-2.5,3.23-2.69,1.06-5.41,2.46-7.56,4.35-1.47,1.3-1.99,3.68-2.55,5.76q8.74-2.73,10.1,2.33c-4.59,2.51-12.4,2.6-8.93,11.89,3.47-3.28,6.74-6.77,10.43-9.74,3.96-3.19,3.29-7.69,3.74-11.72.64-5.71.5-11.5.66-17.26.05-1.72.16-3.9,2.31-3.4,1.18.27,2.73,2.6,2.69,3.95-.24,7.4-1.35,14.8-1.35,22.19,0,13.37.58,26.75.89,40.12.02,1.04-.22,2.09-.38,3.53-3.92-2.11-3.66-5.41-3.8-8.42-.36-7.8-.54-15.62-.86-23.42-.03-.62-.57-1.23-1.12-2.36-8.02,8.84-15.82,17.5-23.73,26.05-.55.59-1.87.47-2.83.67-.25-1.69-1.31-3.9-.61-4.96,2.06-3.1,4.62-5.94,7.34-8.51,2.14-2.01,2.65-4.21,2.52-6.92-.37-7.79-.66-15.58-.93-23.38-.12-3.53-.15-7.06-.22-11.07Z"/><path class="cls-1" d="m29.63,176.9c5.26-6,11.99-8.54,19-9.96,7.35-1.49,13.41,0,14.18,6.7.44,3.83-1.5,8.1-2.99,11.93-.98,2.51-2.99,4.67-4.75,6.81-.56.68-2.11,1.36-2.71,1.06-4.1-2.07-7.23,1.38-10.87,1.71-.68.06-1.58.67-1.89,1.28-1.79,3.47-2.22,3.64-4.71,1-5.95-6.31-8.57-14.11-9.82-22.49-.19-1.27-.57-2.52-.61-3.79-.03-.85.36-1.73.57-2.59.91.27,2.29.27,2.63.86.83,1.46,1.23,3.18,1.69,4.83.23.84.21,1.76.31,2.64Zm26.73,4.06c-.24-.33-.49-.66-.73-.99-5.86,2.62-11.66,5.4-17.63,7.72-1.15.45-3.51-.46-4.4-1.51-1.19-1.41-.04-2.67,1.7-3.34,4.99-1.91,9.95-3.87,14.86-5.96,2.54-1.08,4.81-1.57,6.85,1.58.33-1.23.57-1.86.66-2.51.62-4.51.05-5.02-4.55-4.54-6.99.74-12.95,3.51-17.86,8.6-1.1,1.14-2.58,1.92-4.26,3.14,1.1,2.57,2.31,5.43,3.46,8.12,5.9-.3,10.8-4.29,16.7-2.86.38.09,1.11-.49,1.39-.94,1.32-2.13,2.55-4.33,3.81-6.51Z"/><path class="cls-1" d="m111.26,256.52c-2.2-.07-4.52.31-6.56-.28-10.71-3.09-19.95-9.01-28.68-15.75-4.29-3.31-4.16-3.42-6.66,1.3-1.47,2.78-2.93,5.59-4.62,8.23-.7,1.1-2,2.54-3.03,2.54-1.23,0-2.46-1.37-3.16-1.82,3.19-5.72,5.98-10.72,8.86-15.89-1.99-1.38-3.8-2.64-5.99-4.15.75-.92,1.42-1.74,2.22-2.73-.96-.75-2.12-1.66-3.47-2.7,3.06-4.39,5.98-8.56,10.96-10.75,2.49-1.1,4.75-1.13,6.61,1.05,1.76,2.07,2.71,4.26,1.22,7.05-1.48,2.76-2.48,5.78-3.98,8.54-1,1.84-.64,2.93.88,4.19,8.07,6.67,16.61,12.56,26.36,16.54,2.98,1.21,6.01,2.32,9.01,3.47.01.39.02.79.03,1.18Zm-41.58-26.09c1.61-3.78,3.11-7.33,4.62-10.88-.45-.28-.9-.57-1.35-.85-2.8,3.11-5.6,6.22-8.54,9.49,2.06.88,3.52,1.5,5.27,2.24Z"/><path class="cls-1" d="m489.15,247.23c1.98-3.2,3.79-6.53,5.98-9.58,5.32-7.45,8-15.99,10.01-24.7,1.69-7.31,3.13-14.76,3.71-22.23.35-4.51.18-9.39-2.3-13.68-.35-.61-.07-1.59-.09-2.41.9.13,2.26-.06,2.63.45,1.31,1.84,2.66,3.8,3.3,5.92,1.84,6.11,1.36,12.37.03,18.47-1.89,8.71-3.88,17.42-6.38,25.97-2.07,7.09-6.14,13.27-11.04,18.78-1.37,1.54-3.39,2.5-5.12,3.73-.24-.24-.49-.48-.73-.72Z"/><path class="cls-1" d="m425.09,229.95c2.22-4.4,4.81-8.62,6.54-13.16,2.48-6.5,4.56-13.18,6.38-19.9,1.55-5.75,2.37-11.69,3.73-17.49,1.25-5.31.89-10.53-.19-15.78-.25-1.23-1.06-3.04.89-3.06,1.15-.01,3.09,1.48,3.32,2.57.72,3.54,1.12,7.21,1.09,10.83-.08,11.73-3.44,22.82-7.35,33.72-2.08,5.8-4.78,11.38-7.36,16.99-.61,1.33-1.74,2.49-2.83,3.52-.47.44-1.48.26-2.18.54-.69.27-1.29.76-2.04,1.22Z"/><path class="cls-1" d="m384.51,190.33c.71,2.07,1.38,4.03,2.08,6.08,2.24-.61,5-1.61,7.85-2.01,1.33-.19,3.24.43,4.12,1.39.66.72.6,2.89-.02,3.85-1.98,3.08-4.26,5.99-6.69,8.74-.72.82-2.33.85-4.02,1.41,1.05,2.76,2.41,6.36,3.79,10-3.9-.82-5.06-2.81-9.28-15.94-2.46,1.53-4.83,3.01-7.22,4.49-3.09,1.91-3.82,1.64-5.26-2.15,2.78-1.59,5.6-3.21,8.42-4.8,2.06-1.16,3.33-2.55,3.13-5.27-.14-1.99-.85-4.72,3.09-5.78Zm2.94,16.17c4.41-3.76,5.42-5.32,5.08-7.67-6.68,2.53-6.87,2.81-5.08,7.67Z"/><path class="cls-1" d="m187.87,254.57c4.79,2.11,5.27-.85,5.55-3.53.86-8.25,1.52-16.53,2.28-24.79.29-3.14.91-6.28.93-9.42.09-13.89-6-17.57-18.22-14.95-11.56,2.48-22.72,6.83-34,10.5-1.83.6-3.41,1.95-5.1,2.97-.3.18-.57.65-.83.63-5.78-.32-4.25,4.01-4.43,7.08-.58,10.11-.2,20.09,4.22,29.51.32.69-.17,1.75-.32,2.91-4.07-3.24-6-7-6.79-11.7-1.45-8.62-3.13-17.16-1.25-25.93.36-1.67-.02-3.48.26-5.18.38-2.29,1.31-3.89,3.99-1.99.49.35,1.6.41,2.09.09,8.46-5.6,18.43-7.13,27.82-10.11,6.47-2.06,13.34-3.61,20.09-3.85,9.84-.34,17.47,8.2,16.78,18.1-.93,13.36-2.14,26.71-3.45,40.03-.19,1.9-.07,4.8-3.17,5.02-3.16.23-4.89-1.71-6.44-5.39Z"/><path class="cls-1" d="m131.56,171.24c5.29-1.42,10.45-2.75,15.58-4.19,3.47-.98,6.89-2.17,10.36-3.17,2.02-.58,2.5-1.59,1.2-3.28-1.77-2.29-3.57-4.56-5.36-6.84,4.01-1.81,8.36,1.66,10.05,8.14,5.26-1.3,10.48-2.83,15.8-3.8,2.09-.38,4.41.42,6.6.84.49.1,1.28,1.13,1.17,1.33-.34.63-.98,1.44-1.59,1.51-13.77,1.63-26.38,7.22-39.42,11.35-2.87.91-5.85,1.48-8.8,2.1-2.83.59-4.83-.38-5.57-3.98Z"/><path class="cls-1" d="m154.19,198.38c-3.52-1.59-4.95-4.92-5.57-8.73-.3-1.83-.64-3.73-.44-5.55.13-1.19.88-2.82,1.84-3.34,4.51-2.42,9.1-4.74,13.86-6.62,1.7-.67,4.29-.66,5.83.19,2.61,1.45,2.28,4.48,1.66,7-.52,2.12-1.45,4.19-2.47,6.14-1.09,2.09-2.22,3.72-5.11,4.55-3.34.96-6.1,3.93-9.58,6.36Zm-.54-7.66c8.18-1.74,13.42-7.26,11.34-11.92-3.77,2.27-7.51,4.51-11.18,6.72l-.16,5.21Z"/><path class="cls-1" d="m149.86,215.19c2,3.17,3.99,1.88,6.42.9,4.37-1.77,8.9-3.3,13.51-4.21,2.82-.56,6.21,3.88,5.46,6.69-1.16,4.36-3.69,8.79-7.76,9.75-4.32,1.03-6.39,4.33-9.76,6.08-.83.43-2.41.65-2.95.18-2.37-2.05-4.52-4.23-4.63-7.84-.07-2.49-1.11-4.93-1.54-7.42-.2-1.14.03-2.36.07-3.54l1.18-.59Zm3.89,8.12c.51,1.89,1.04,3.82,1.6,5.88,3.31-1.17,5.11-5.58,9.21-3.07.36.22,1.74-.45,2.04-1.03,1.32-2.55,2.42-5.21,3.9-8.48-6.53.77-11.38,4.08-16.75,6.7Z"/><path class="cls-1" d="m422.73,191.26c-3.6-1.75-4.94-4.08-4.71-7.56.3-4.47.21-8.97.51-13.43.07-1.09,1.01-2.12,1.55-3.18.9.94,2.34,1.76,2.6,2.86.51,2.13.5,4.43.48,6.65-.06,4.76-.27,9.51-.43,14.66Z"/><path class="cls-1" d="m21.09,53.27c-5.14,3.07-10.42,6.27-15.75,9.39-.87.51-2.1,1.14-2.87.88-1.02-.35-2.14-1.42-2.44-2.42-.19-.61.87-2,1.7-2.47,5.67-3.26,11.33-6.56,17.2-9.43,3.02-1.47,4.9-3.08,5.75-6.59,1.15-4.74,3.26-9.26,5.18-14.48,1.62.77,3.3,1.06,3.91,2.02.49.77-.14,2.45-.62,3.58-1.36,3.16-2.9,6.23-4.37,9.34.29.25.58.5.87.75,5.59-3.07,11.16-6.17,16.77-9.19,1.06-.57,2.27-1.13,3.42-1.14.72,0,1.64.89,2.1,1.61.17.28-.58,1.47-1.16,1.81-5.48,3.23-10.85,6.72-16.59,9.44-5.2,2.46-8.52,5.56-8.25,11.74.18,3.98-.23,7.98-.3,11.97-.02,1.19.19,2.39.28,3.43,5.46-2.94,10.79-5.53,15.8-8.66,1.6-1,2.35-3.39,3.44-5.17.86-1.4.98-3.66,3.7-2.54,2.72,1.12,1.36,2.83.86,4.46-.12.39-.3.76-.38.96,3.29.62,6.6.82,9.58,1.91,5.34,1.95,8.7,5.8,9.33,11.72,1.27,11.93-18.1,53.66-26.5,62.37-1.05,1.09-2.58,1.71-3.89,2.54-.38-.35-.75-.7-1.13-1.05.95-1.71,1.64-3.63,2.89-5.09,7.01-8.21,25.87-48.95,24.89-59.56-.48-5.15-4.15-8.2-9.81-8.25-1.21-.01-2.43,0-3.64.07-3.9.26-6.05,2.55-7.75,5.95-3.42,6.86-7.05,13.63-10.93,20.24-1.61,2.74-1.98,5.2-.6,7.9,1.73,3.4,3.63,6.71,5.42,10.09.36.68.55,1.46,1,2.69-5.87-2.59-7.41-7.76-9.74-12.2-3.71,4.4-6.98,8.88-10.91,12.67-2.06,1.99-5.16,3.34-8.01,3.97-4.17.91-7.73-3.48-7.04-7.55,1.81-10.73,7.22-19.53,14.27-27.51,1.03-1.17,2.33-2.16,3.13-3.47.94-1.53,2.07-3.31,2.06-4.97-.06-7.05-.5-14.09-.84-21.74ZM4.84,113.98c4.71.41,7.24-.13,9.76-3.05,3.66-4.24,6.88-8.86,10.17-13.4.64-.89,1.19-2.25,1.01-3.26-.57-3.28-1.5-6.51-2.37-10.05-.63.47-1.16.71-1.46,1.12-4.78,6.6-9.73,13.09-14.18,19.9-1.56,2.38-1.91,5.56-2.92,8.75Zm24.03-23.05c3.55-6.65,6.68-12.52,9.81-18.39-.24-.26-.49-.52-.73-.77-2.95,2.08-5.92,4.13-8.85,6.24-1.97,1.42-2.9,3.11-1.91,5.7.77,2.03,1.02,4.26,1.68,7.23Z"/><path class="cls-1" d="m288.28,99.3c-3.14-2.17-1.25-3.83-.49-4.95,4.81-7.07,8.02-14.79,10.1-23.03.61-2.4-.62-4.42-3.02-4.07-3.26.47-6.46,1.56-9.58,2.7-.73.27-1.25,1.75-1.45,2.75-.86,4.29-1.5,8.63-2.39,12.92-.16.76-1.1,1.36-1.68,2.03-.55-.77-1.53-1.52-1.57-2.32-.07-1.6.4-3.22.59-4.84.29-2.49.53-4.98.79-7.47-.27-.21-.54-.42-.8-.63-4.09,2.7-8.34,5.2-12.22,8.19-1.94,1.49-2.92.87-4.01-.57-1.36-1.79.09-2.45,1.39-3.21,5.27-3.07,10.52-6.15,15.75-9.29.51-.31,1.04-.92,1.16-1.48,1.04-5.07,2.04-10.16,2.94-15.25.28-1.58.22-3.23.34-5.29,4.38,2.68,4.61,3.76,3.58,7.8-.95,3.71-1.43,7.54-2.12,11.36,1.93-.26,3.79-.39,5.6-.79,6.71-1.48,12.05,3.55,9.47,11.01-1.79,5.16-4.13,10.15-6.55,15.05-1.6,3.22-3.79,6.14-5.84,9.38Z"/><path class="cls-1" d="m192.01,53.68c-4.24,1.89-7.98,3.68-11.82,5.19-1.01.4-2.59.39-3.47-.15-2-1.22-1.74-2.42.49-3.36,4.11-1.73,8.19-3.54,12.36-5.14,2.82-1.08,3.04-3.16,2.92-5.69-.05-1.09.46-2.2.72-3.31.98.93,2.18,1.72,2.85,2.83.46.77.16,1.99.22,3.46,1.63-.63,3.05-1.28,4.53-1.73,1.14-.35,2.38-.69,3.52-.57.69.07,1.46.93,1.82,1.63.13.25-.74,1.29-1.34,1.59-2.37,1.16-4.86,2.1-7.22,3.28-.69.34-1.54,1.15-1.61,1.81-.99,9.22-2.04,18.45-2.68,27.7-.36,5.18.23,10.41-.03,15.6-.18,3.52-.92,7.05-1.77,10.49-.21.87-1.79,1.4-2.74,2.09-.22-1.17-.87-2.45-.59-3.48,2.05-7.31,1.56-14.74,1.57-22.19,0-6.03.69-12.06,1.14-18.09.28-3.75.7-7.49,1.12-11.97Z"/><path class="cls-1" d="m113.29,57.15c4.21,2.02,4.25,2.28,2.36,5.51-.74,1.25-1.15,2.69-1.97,4.67,2.59-1.21,4.43-2.33,6.42-2.91,1.42-.42,3.05-.13,4.59-.15-.04.65.15,1.7-.16,1.89-2.8,1.65-5.59,3.39-8.57,4.64-3.61,1.5-5.83,3.85-6.36,7.75-1.08,7.96-2.17,15.92-3.28,23.88-.21,1.49-.53,2.96-.78,4.39-2.31.35-3.88.11-3.57-2.5.52-4.36.99-8.73,1.64-13.07.65-4.33,1.5-8.62,2.22-12.93.08-.46-.06-.96-.14-1.99-2.93,1.84-5.76,3.2-8.06,5.17-1.98,1.7-3.4.65-4.38-.53-1.27-1.52.19-2.53,1.51-3.29,3.62-2.08,7.16-4.34,10.89-6.21,2.49-1.24,3.39-3.38,4.29-5.64,1.15-2.87,2.25-5.75,3.38-8.66Z"/><path class="cls-1" d="m543.11,95.01c-5.27-1.8-8.46-5.37-11.73-8.69-6.51-6.62-12.78-13.48-20.84-18.33-1.67-1.01-2.19-2.13-.55-3.88,5.48-5.87,10.8-11.89,16.24-17.81,1.79-1.95,3.84-3.65,5.57-5.64,1.57-1.81,3.12-1.13,4.62-.24,1.25.74,1.41,1.52.11,2.84-6.95,7.04-13.74,14.24-20.57,21.41-1.35,1.42-.67,2.55.68,3.5,9.98,7.01,16.93,17.07,25.61,25.4.24.23.36.59.87,1.44Z"/><path class="cls-1" d="m140.03,83.24c3.17-.71,6.82-1.56,10.48-2.34.89-.19,1.89-.38,2.72-.15.74.21,1.31,1.02,1.95,1.56-.53.62-.94,1.6-1.6,1.8-3.01.93-6.08,1.65-9.13,2.45-1.68.44-3.42.71-5.01,1.37-.76.31-1.55,1.24-1.77,2.04-.72,2.64-1.1,5.38-1.76,8.04-.88,3.56-3.14,5.27-5.67,4.49-4.34-1.34-6.49-4.58-5.45-8.12,1-3.39,2.98-5.93,6.13-7.59,4.32-2.28,5.42-5.36,3.74-9.82-.27-.72.1-1.68.18-2.53.75.29,1.94.39,2.18.91,1.1,2.43,1.94,4.97,3.02,7.88Zm-7.09,8.03c-3.06.98-4.72,3.48-4.6,6.93q3.27.58,4.6-6.93Z"/><path class="cls-1" d="m344.88,87.83c-1.65-1.32-3.61-2.39-4.89-4-6.27-7.95-12.25-16.14-18.56-24.06-3.37-4.24-7.26-8.07-10.76-12.22-.69-.81-.66-2.22-.97-3.36,1.19.38,2.74.41,3.51,1.2,8.98,9.18,16.91,19.21,24.06,29.88,2.65,3.95,5.64,7.67,8.47,11.5-.29.35-.58.71-.87,1.06Z"/><path class="cls-1" d="m238.21,96.47c-2.54-1.4-5.22-2.61-7.61-4.23-4.46-3.02-8.79-6.25-13.1-9.49-.64-.48-.84-1.54-1.24-2.32.88-.03,2.02-.44,2.59-.03,6.26,4.45,12.44,9.01,18.61,13.59.56.41.9,1.11,1.34,1.68-.2.27-.4.54-.59.81Z"/><path class="cls-1" d="m215.95,65.14c-2.95-2.51-1.49-4.26.91-5.72,2.5-1.52,5-3.11,7.68-4.25,1.03-.44,2.59.13,3.81.56.29.1.45,1.97.14,2.16-4.1,2.5-8.3,4.84-12.54,7.26Z"/><path class="cls-1" d="m429.17,25.91c.47,1.24.93,2.47,1.4,3.71-.23.29-.46.58-.69.88-1.49-.92-3.4-1.53-4.4-2.83-3.88-5.03-4.24-11.01-3.44-16.99.33-2.45,1.34-5.43,4.96-2.63.3.23,1.02.07,1.49-.08,8.06-2.44,16.02-5.26,24.19-7.22,4.87-1.17,10.13-1.33,14.52,2.22,3.22,2.6,3.06,7.01-.32,9.43-1.35.97-2.53,1.46-2.51-1.03,0-.42-.29-.84-.32-1.26-.11-1.68.23-4.65-.33-4.83-2.24-.7-4.76-.63-7.17-.66-1-.02-2.03.37-3.02.64-2.32.63-4.62,1.29-7.02,1.97.23,2.67.46,5.27.7,7.97,2.16-.63,4.32-1.28,6.5-1.86.6-.16,1.48-.36,1.85-.06.93.72,1.65,1.72,2.45,2.61-.96.61-1.87,1.36-2.91,1.8-2.51,1.06-5.09,1.96-7.84,3,.31,1.23.59,2.33.98,3.85,1.27-.17,2.58-.33,3.9-.51,6.08-.84,11.03,2.6,10.26,8.66-.42,3.31-.32,6.76-1.2,9.94-1.58,5.73-2.63,8.23-12.51,10.79l-.23,7.2c13.95-4.06,27.97-5.67,42.2-5.57.11.29.22.58.33.87-1.75.83-3.42,2.08-5.26,2.42-10.25,1.91-20.54,3.59-30.82,5.37-1.01.18-2,.5-3,.73-2.31.52-3.28,1.69-3.33,4.31-.26,14.12-1,28.23-1.12,42.35-.06,7.53.78,15.07,1.19,22.61.02.43-.17.86-.44,2.13-2.65-4.3-3.86-8.31-3.97-12.57-.3-10.94-.55-21.88-.55-32.81,0-7.61.43-15.23.7-23.84-8.34,3.29-15.6,6.15-23.55,9.29-.41-.52-2.11-1.76-2.01-2.84.1-1.06,1.86-2.32,3.16-2.87,5.26-2.24,10.64-4.21,15.95-6.34,6.42-2.57,5.38-.55,5.51-8.65-1.46,1.3-4-.44-4.68,2.33-1.38-.88-3.5-1.44-4.03-2.68-2.33-5.52-3.93-11.27-3.17-17.42.66-5.28,4.81-7.44,8.78-9.37,2.49-1.21,3.27-2.47,2.38-5.46-2.22.84-4.7,1.27-6.53,2.6-2.41,1.75-4.59,1.97-7.13.81-.58-4.56,3.25-5,6.01-6.03,7.24-2.71,7.29-2.59,6.41-9.92-.04-.29-.18-.58-.32-1.01-3.31,1.14-6.51,2.27-9.74,3.36-1.44.49-2.91.9-5.12,1.57.06,2.08-.11,5.13.34,8.09.21,1.39,1.61,2.6,2.48,3.89Zm19.23,15.7l-.19,5.88c2.4.51,4.5.95,6.43,1.36.09-.67.14-1.76.4-2.81.89-3.64,1.89-7.25,2.79-10.89,1.49-6.01.48-6.68-5.69-6.03-3.45.36-3.89,2.01-3.92,4.57-.01.86.28,1.72.42,2.52q5.89.27,6.87,3.45c-2.3.63-4.59,1.26-7.1,1.95Zm-10.6,9.7c5.92-1.69,6.34-2.38,4.77-7.43-6.63,2.7-6.79,2.95-4.77,7.43Zm5.61-13.37c-.17-1.78-.33-3.45-.52-5.45-3.06,2.4-6.98,3.53-7,8.23,2.58-.96,5.01-1.85,7.52-2.78Z"/><path class="cls-1" d="m399.8,40.2c4.74-7.81,9.05-15.5,10.99-25.16,1.16.31,2.86.36,3.99,1.18,1.55,1.14,1.24,2.82.39,4.59-3.52,7.31-6.88,14.7-10.27,22,3.28-1.13,7.13-2.12,10.65-3.8,2.73-1.3,4.12-.43,6.05,2.21-3.9,1.73-7.44,3.45-11.09,4.88-11.16,4.38-22.38,8.6-33.54,12.99-2.37.93-3.93-.08-4.81-1.86-.24-.49,1.42-2.5,2.56-2.98,6.85-2.89,13.8-5.53,20.98-8.37-.08-3.57-.33-7.46-.22-11.34.1-3.37.79-6.73.87-10.1.13-5.5-.04-11-.04-16.5,0-1.56-.31-3.53,2.13-3.5,2.12.03,2.98,1.36,2.84,3.46-.57,8.73-1.14,17.47-1.63,26.21-.11,2.01.09,4.05.15,6.07Z"/><path class="cls-1" d="m384.64,99.08c-1.59-2.41-1.53-3.72-.52-5.85,1.93-4.08,3.08-8.56,4.22-12.96,2.02-7.77,3.79-15.61,5.64-23.42.13-.55-.05-1.19.12-1.72.32-1.03.78-2.01,1.18-3.01.97.96,2.68,1.86,2.76,2.89.19,2.35-.12,4.84-.74,7.14-3.01,11.08-6.12,22.14-9.39,33.15-.4,1.36-1.99,2.36-3.27,3.8Z"/><path class="cls-1" d="m415.41,61.32c2.41,1.52,2.73,3.09,1.2,5.02-1.42,1.8-2.68,3.76-4.27,5.39-2.88,2.94-7.08,1.91-8.11-2.25-1.34-5.41-2.16-10.97-2.99-16.49-.12-.81.93-1.81,1.44-2.72.87.91,2.3,1.7,2.51,2.74.81,3.92,1.19,7.93,1.82,11.9.17,1.04.66,2.02.92,2.8,2.64-2.26,5.07-4.34,7.47-6.39Z"/><path class="cls-1" d="m392.63,46.06c-1.84-1.24-4.18-2.11-5.43-3.8-3.54-4.77-6.66-9.85-9.82-14.88-.28-.45.38-1.49.6-2.26,1.01.46,2.41.66,2.96,1.45,1.31,1.85,2.04,4.11,3.33,5.98,2.91,4.22,6.01,8.3,9.04,12.43-.23.36-.46.72-.68,1.08Z"/><path class="cls-1" d="m149.73,67.79c-1.36-.44-2.24-.68-3.09-1-3.47-1.31-6.94-2.63-10.41-3.96-1.79-.69-3.6-1.34-5.33-2.15-.42-.2-.95-1.12-.81-1.4.28-.56,1.14-1.38,1.5-1.27,6.06,1.87,12.64,2.6,17.37,7.5.36.38.38,1.09.76,2.28Z"/><path class="cls-1" d="m332.26,44.59c-3.7-.09-8.41-4.69-10.66-10.16,3.68-.76,8.97,4.2,10.66,10.16Z"/><path class="cls-1" d="m329.86,27.71c4.49-.49,8.49,2.5,11.19,8.39-3.09.24-10.6-5.4-11.19-8.39Z"/></g></svg>