<?xml version="1.0" encoding="UTF-8"?><svg id="_レイヤー_2" xmlns="http://www.w3.org/2000/svg" viewBox="0 0 313.87 50"><defs><style>.cls-1{fill:#292f4a;}</style></defs><g id="design"><path class="cls-1" d="m1.81,49.74c-.26,0-.43-.02-.53-.05-.15-.04-.1-.2-.02-.34l2.16-3.05h-.77s-2.32,0-2.32,0l-.27.79h.08c.09-.26.55-.67,1.62-.67.25,0,.41.02.52.05.16.05.08.21-.02.35l-2.26,3.04h3.29l.27-.8h-.08c-.1.26-.57.68-1.67.68"/><path class="cls-1" d="m7.03,49.74h-.69c-.19,0-.32-.11-.32-.43v-1.25h1.01c.57,0,.75.32.8.46h.06v-1.08h-.05c-.05.14-.21.46-.73.46h-1.08v-1.47h.94c.97,0,1.17.31,1.29.67h.07l-.16-.79h-3.1v.05c.2,0,.33.16.33.44v2.1c0,.19,0,.34,0,.36,0,.35-.13.54-.33.54v.07h3.25s.16-.85.16-.85h-.08c-.14.39-.35.72-1.37.72"/><path class="cls-1" d="m60.57,49.74h-.69c-.19,0-.32-.11-.32-.43v-1.25h1.01c.57,0,.75.32.8.46h.06v-1.08h-.05c-.05.14-.21.46-.73.46h-1.08v-1.47h.94c.97,0,1.17.31,1.3.67h.07l-.16-.79h-3.1v.05c.2,0,.33.16.33.44v2.1c0,.19,0,.34,0,.36,0,.35-.13.54-.33.54v.07h3.25s.16-.85.16-.85h-.08c-.14.39-.35.72-1.37.72"/><path class="cls-1" d="m23.85,46.31h-.64v.07c.11,0,.3.17.19.31l-.95,1.29-.98-1.29c-.11-.14.04-.31.16-.31v-.07h-1.23v.07c.11,0,.17.07.22.13,0,0,.01.01.02.03l1.35,1.81v.44c0,.24,0,.46,0,.49,0,.35-.13.54-.33.54v.07h.33s0,0,0,0h0s.61,0,.61,0h.34v-.07c-.21,0-.33-.2-.33-.54,0-.02,0-.22,0-.48v-.49l1.41-1.8c.05-.06.11-.12.22-.12v-.07h-.37Z"/><path class="cls-1" d="m19.1,49.67c-.12-.13-.09-.65-.37-1.11-.2-.33-.56-.46-.92-.52.49-.04,1.26-.2,1.26-.9s-.72-.83-1.64-.83h-1.95v.05c.2,0,.33.16.33.44v1.99c0,.21,0,.45,0,.47,0,.35-.13.54-.33.54v.07h1.29v-.07c-.21,0-.33-.2-.33-.54,0-.02,0-.27,0-.44v-.77h.67c.48,0,.85.13,1.1.68.17.38.2,1.14.2,1.14h.96v-.07c-.09,0-.15-.01-.25-.14m-2.68-3.24h.82c.59,0,1.13.19,1.13.69s-.42.78-.9.78h-1.05v-1.47Z"/><path class="cls-1" d="m56.84,49.67c-.12-.13-.09-.65-.37-1.11-.2-.33-.56-.46-.92-.52.49-.04,1.26-.2,1.26-.9s-.72-.83-1.64-.83h-1.95v.05c.2,0,.33.16.33.44v1.99c0,.21,0,.45,0,.47,0,.35-.13.54-.33.54v.07h1.29v-.07c-.21,0-.34-.2-.34-.54,0-.02,0-.27,0-.44v-.77h.67c.48,0,.85.13,1.1.68.17.38.2,1.14.2,1.14h.96v-.07c-.09,0-.15-.01-.25-.14m-2.68-3.24h.82c.59,0,1.13.19,1.13.69s-.42.78-.9.78h-1.05v-1.47Z"/><path class="cls-1" d="m27.28,46.17c-1.16,0-2,.8-2,1.91s.84,1.91,2,1.91,2-.8,2-1.91-.84-1.91-2-1.91m0,3.68c-.89,0-1.26-.79-1.26-1.76s.37-1.77,1.26-1.77,1.26.79,1.26,1.77-.37,1.76-1.26,1.76"/><path class="cls-1" d="m34.16,49.67c-.12-.13-.09-.65-.37-1.11-.28-.47-.89-.53-1.36-.55-.18,0-.33,0-.46,0,.27-.23.84-.7,1.09-.89.32-.25.88-.74,1.17-.74v-.07h-1.12v.07c.09,0,.3.09.1.3-.17.18-1.06.95-1.4,1.32-.03.03-.05.05-.07.08v-1.11s0-.03,0-.06c0-.35.13-.54.33-.54v-.07h-.33s0,0,0,0h0s-.61,0-.61,0h-.33v.05c.2,0,.33.16.33.44v2.4s0,.04,0,.06c0,.35-.13.54-.33.54v.07h1.29v-.07c-.21,0-.33-.2-.33-.54,0-.02,0-.04,0-.06v-.73c0-.22.06-.31.1-.34.03-.04.04-.04.09-.09h.24c.48,0,.85.13,1.1.68.17.38.2,1.14.2,1.14h.96v-.07c-.09,0-.15-.01-.25-.14"/><path class="cls-1" d="m38.49,46.37c.29,0,.41.32.41.55v1.41c0,.89-.22,1.4-1.4,1.4-.77,0-.93-.44-.93-1.4v-1.58c0-.23.05-.38.34-.38v-.07h-1.29v.07c.19,0,.32.14.32.4v2.02c0,.46.15,1.2,1.56,1.2s1.63-.86,1.63-1.37v-1.59c0-.42.3-.66.49-.66v-.07h-1.13v.07Z"/><path class="cls-1" d="m13.58,46.31h-.61v.05c.24,0,.43.22.43.55v1.99l-2.4-2.59h-.95v.05c.2,0,.33.16.33.44v2.4c0,.38-.19.6-.4.6v.07h.99v-.07c-.21,0-.42-.24-.42-.58v-2.3c0-.07,0-.13.02-.19l2.83,3.14h.18v-2.58c0-.13,0-.27,0-.3,0-.36.22-.62.43-.62v-.07h-.43"/><path class="cls-1" d="m77.43,46.35v-.05h-1.27v.05c.2,0,.33.16.33.44v1.09h-2.08v-1.13c.01-.26.13-.4.33-.4v-.05h-1.27v.05c.2,0,.33.16.33.44v1.89c0,.32,0,.54,0,.56,0,.35-.13.54-.33.54v.07h.33s0,0,0,0h0s.61,0,.61,0h.33v-.05c-.19,0-.31-.15-.33-.4v-1.36h2.08v.66c0,.32,0,.53,0,.55,0,.35-.13.54-.33.54v.07h.33s0,0,0,0h0s.61,0,.61,0h.33v-.05c-.19,0-.31-.15-.33-.4v-2.65c.01-.26.13-.4.33-.4"/><path class="cls-1" d="m45.41,47.74c-.55-.05-1.04-.22-1.14-.55-.1-.32.13-.89.98-.89s1.1.64,1.07.86l.08.03.21-.69c-.15-.11-.67-.31-1.46-.31-1.12,0-1.59.62-1.49,1.31.11.69,1.16.8,1.5.85.34.05.94.04,1,.59.06.55-.46.94-1.27.89-.81-.05-1.15-.59-1.12-.98l-.08-.02s-.15.49-.22.75c.15.1.78.39,1.64.39s1.66-.44,1.64-1.24c-.03-.8-.81-.96-1.35-1"/><path class="cls-1" d="m48.15,46.3l-.16.79h.08c.13-.36.26-.67,1.23-.67.2,0,.33.09.33.37v2.03c0,.21,0,.4,0,.43,0,.35-.13.54-.33.54v.07h1.29v-.07c-.21,0-.33-.2-.33-.54,0-.02,0-.24,0-.42v-1.86s0-.03,0-.06c0-.35.13-.49.33-.49.97,0,1.09.31,1.22.67h.07l-.15-.79h-3.57Z"/><path class="cls-1" d="m63.47,46.3l-.16.79h.07c.13-.36.26-.67,1.23-.67.2,0,.33.09.33.37v2.03c0,.21,0,.4,0,.43,0,.35-.13.54-.33.54v.07h1.29v-.07c-.21,0-.33-.2-.33-.54,0-.02,0-.24,0-.42v-1.86s0-.03,0-.06c0-.35.13-.49.33-.49.97,0,1.09.31,1.22.67h.07l-.16-.79h-3.57Z"/><path class="cls-1" d="m71.79,48.85c.03.22-.29.99-1.26.99-.66,0-1.39-.57-1.39-1.76s.65-1.76,1.39-1.76c.86,0,1.2.61,1.17.92l.08.03s.15-.48.2-.69c-.34-.25-.89-.38-1.45-.38-.97,0-2.11.49-2.11,1.88s1.18,1.88,2.11,1.88c.78,0,1.39-.34,1.55-.45l-.21-.69-.08.03Z"/><path class="cls-1" d="m74.74,0v33.35c0,.5-.6.75-.95.4L40.05,0H3.18v2.37h32.16c.5,0,.75.6.4.95L.31,38.75h40.43V5.4c0-.5.6-.75.95-.4l35.42,35.42V0h-2.37Zm-36.38,5.4v30.98H7.39c-.5,0-.75-.6-.4-.95L37.41,5.01c.35-.35.95-.1.95.4"/><path class="cls-1" d="m212.81,42.8c-1.05,0-1.7.82-1.7,2.13s.65,2.13,1.7,2.13,1.7-.82,1.7-2.13-.65-2.13-1.7-2.13Z"/><polygon class="cls-1" points="254.35 45.38 255.67 45.38 255.01 43.44 254.35 45.38"/><path class="cls-1" d="m179.9,42.8c-1.05,0-1.7.82-1.7,2.13s.65,2.13,1.7,2.13,1.7-.82,1.7-2.13-.65-2.13-1.7-2.13Z"/><path class="cls-1" d="m193.57,42.88h-.93v4.09h.93c1.51,0,1.82-1.11,1.82-2.05s-.32-2.05-1.82-2.05Z"/><polygon class="cls-1" points="155.58 45.38 156.9 45.38 156.24 43.44 155.58 45.38"/><path class="cls-1" d="m120.71,42.87h-.9v2.05h.9c.5,0,1.11-.18,1.11-1.03s-.6-1.02-1.1-1.02Z"/><path class="cls-1" d="m82.93,39.86v10.14h230.13v-10.14H82.93Zm38,6.22h-1.12v2.09h-1.32v-6.48h2.48c1.29,0,2.2.9,2.2,2.19s-.92,2.2-2.23,2.2Zm8.95,2.09h-1.32v-2.7h-2.76v2.7h-1.32v-6.48h1.32v2.58h2.76v-2.58h1.32v6.48Zm4.64-2.64v2.64h-1.32v-2.64l-2.29-3.84h1.5l1.46,2.53,1.46-2.53h1.49l-2.3,3.84Zm5.59,2.74c-1.48,0-2.48-.77-2.54-1.95v-.2s1.27,0,1.27,0l.02.16c.07.5.56.81,1.29.81.66,0,1.14-.32,1.14-.76,0-.28-.12-.57-.99-.76l-.66-.14c-1.3-.27-1.92-.89-1.92-1.89,0-1.15.99-1.95,2.4-1.95s2.36.8,2.39,1.98v.19s-1.28,0-1.28,0l-.02-.17c-.05-.51-.47-.82-1.12-.82-.52,0-1.05.22-1.05.72,0,.24.11.55.96.73l.67.14c1.35.29,1.95.86,1.95,1.85,0,1.25-.99,2.06-2.51,2.06Zm5.18-.1h-1.32v-6.48h1.32v6.48Zm7.16-2.05c-.25,1.35-1.29,2.15-2.78,2.15-1.81,0-2.98-1.31-2.98-3.34s1.17-3.34,2.98-3.34c1.49,0,2.6.92,2.77,2.29l.03.21h-1.3l-.03-.15c-.15-.7-.73-1.15-1.47-1.15-1,0-1.64.84-1.64,2.13s.63,2.14,1.64,2.14c.76,0,1.29-.38,1.46-1.03l.04-.14h1.31l-.04.22Zm5.38,2.05l-.56-1.65h-2.06l-.56,1.65h-1.39l2.34-6.48h1.29l2.34,6.48h-1.4Zm6.66,0h-4.16v-6.48h1.32v5.28h2.84v1.2Zm11.23-2.05c-.25,1.35-1.29,2.15-2.78,2.15-1.81,0-2.98-1.31-2.98-3.34s1.17-3.34,2.98-3.34c1.49,0,2.6.92,2.77,2.29l.03.21h-1.3l-.03-.15c-.15-.7-.73-1.15-1.47-1.15-1,0-1.64.84-1.64,2.13s.63,2.14,1.64,2.14c.76,0,1.29-.38,1.46-1.03l.04-.14h1.31l-.04.22Zm4.18,2.15c-1.85,0-3.05-1.31-3.05-3.34s1.2-3.34,3.05-3.34,3.05,1.31,3.05,3.34-1.2,3.34-3.05,3.34Zm9.8-.1h-1.14l-2.92-4.14v4.14h-1.3v-6.48h1.14l2.91,4.14v-4.14h1.3v6.48Zm3.96,0h-2.34v-6.48h2.34c1.93,0,3.08,1.21,3.08,3.23s-1.15,3.25-3.08,3.25Zm5.8,0h-1.32v-6.48h1.32v6.48Zm6.32-5.29h-1.86v5.29h-1.32v-5.29h-1.87v-1.19h5.06v1.19Zm2.59,5.29h-1.32v-6.48h1.32v6.48Zm4.45.1c-1.85,0-3.05-1.31-3.05-3.34s1.2-3.34,3.05-3.34,3.05,1.31,3.05,3.34-1.2,3.34-3.05,3.34Zm9.8-.1h-1.14l-2.92-4.14v4.14h-1.3v-6.48h1.14l2.91,4.14v-4.14h1.3v6.48Zm2.94,0h-1.32v-6.48h1.32v6.48Zm6.97,0h-1.14l-2.92-4.14v4.14h-1.3v-6.48h1.14l2.91,4.14v-4.14h1.3v6.48Zm7.25-2.73c0,1.77-1.05,2.83-2.82,2.83s-3.03-1.32-3.03-3.37,1.19-3.31,3.02-3.31c1.44,0,2.56.87,2.78,2.18l.04.22h-1.33l-.04-.13c-.2-.67-.73-1.06-1.44-1.06-1.07,0-1.68.77-1.68,2.1s.63,2.17,1.7,2.17c.86,0,1.45-.52,1.5-1.29h-1.57v-1.14h2.89v.81Zm8.94,2.83c-1.48,0-2.48-.77-2.54-1.95v-.2s1.27,0,1.27,0l.02.16c.07.5.56.81,1.29.81.66,0,1.14-.32,1.14-.76,0-.28-.12-.57-.99-.76l-.66-.14c-1.3-.27-1.92-.89-1.92-1.89,0-1.15.99-1.95,2.4-1.95s2.36.8,2.39,1.98v.19s-1.28,0-1.28,0l-.02-.17c-.05-.51-.47-.82-1.12-.82-.52,0-1.05.22-1.05.72,0,.24.11.55.96.73l.67.14c1.35.29,1.95.86,1.95,1.85,0,1.25-.99,2.06-2.51,2.06Zm7.89-.1l-.56-1.65h-2.06l-.56,1.65h-1.39l2.34-6.48h1.29l2.34,6.48h-1.4Zm6.66,0h-4.16v-6.48h1.32v5.28h2.84v1.2Zm3.7.1c-1.85,0-3.05-1.31-3.05-3.34s1.2-3.34,3.05-3.34,3.05,1.31,3.05,3.34-1.2,3.34-3.05,3.34Zm9.8-.1h-1.14l-2.92-4.14v4.14h-1.3v-6.48h1.14l2.91,4.14v-4.14h1.3v6.48Z"/><path class="cls-1" d="m266.96,42.8c-1.05,0-1.7.82-1.7,2.13s.65,2.13,1.7,2.13,1.7-.82,1.7-2.13-.65-2.13-1.7-2.13Z"/><path class="cls-1" d="m137.33,7.15V.11h-4.19v7.04c0,.37,0,.73,0,1.1h-12.28v4.11h12.06c-.54,5.74-2.56,13.77-12.46,19.86l-.75.46,1.75,2.34c.14.17.26.32.34.46l.43.66.67-.42c11.47-7.09,13.66-16.62,14.22-23.37h11.47c-.49,8.58-1.19,17.35-2.63,18.75-.22.22-.44.32-1.15.32-.44,0-2.74-.01-5.4-.22l-1.04-.08.5,2.88c.05.2.08.39.1.56l.07.67.67.05c2.51.2,4.83.26,6.03.15,1.47-.12,2.59-.45,3.59-1.68,1.83-1.99,2.59-7,3.53-23.33l.02-2.18h-15.56c0-.37,0-.73,0-1.1Z"/><path class="cls-1" d="m264.41,18.96l.2.9,4.03-1.47-.2-.72c-.45-1.6-2.29-6.58-2.9-8.11l-.29-.72-4.04,1.41.38.81c.71,1.52,2.45,6.25,2.82,7.9Z"/><path class="cls-1" d="m111.79,17.63v-1.97c1.05.72,2.08,1.38,3.08,1.96l.68.4,2.3-3.71-.77-.4c-5.8-3-12.12-8.46-15.74-13.58l-.24-.34h-3.34l-.24.39c-2.94,4.94-8.96,10.56-14.99,13.98l-.73.41,1.36,2.18c.12.16.21.31.31.5l.48.78.68-.4c1.06-.62,2.15-1.32,3.26-2.09v1.86h9.67v4.47h-11.28v3.85h11.28v4.77h-14.34v3.89h33.24v-3.89h-14.75v-4.77h11.46v-3.85h-11.46v-4.47h10.08Zm-21.21-3.85c3.67-2.88,6.89-6.12,9.05-9.13,2.28,2.92,5.74,6.22,9.56,9.13h-18.6Z"/><path class="cls-1" d="m178.08,19.63c2.15-2.84,4.39-6.77,5.79-10.18l.95-2.4-2.35-1.75h-21.68v4.24h18.23c-1.12,2.89-3.46,6.67-5.78,9.3-2.61,2.91-8.05,8.21-15.11,10.95l-1.13.44,3.36,3.48.52-.23c6.16-2.79,11.17-7.22,14.39-10.59,3.4,3.11,7.18,7.21,9.73,10.56l.52.69,3.56-3.1-.5-.61c-2.38-2.88-6.69-7.45-10.5-10.8Z"/><path class="cls-1" d="m274.56,11.43l-.02-.02-.31,1.46c-.84,4.01-2.51,7.7-4.7,10.37-2.79,3.47-7.16,6.33-11.69,7.65l-1.3.38,3.52,3.58.49-.19c4.89-1.85,9.33-5.06,12.48-9.03,2.49-3.15,4.27-7.03,5.45-11.88.03-.11.06-.23.1-.37l.53-2.06-4.23-1.39-.33,1.5Z"/><path class="cls-1" d="m300.5,14.81v-5.92c3.1-.46,6.12-1.16,7.02-1.38l.45-.12c.45-.12.96-.26,1.52-.4l1.2-.3-2.93-3.79-.57.25c-1.77.76-6.17,1.63-9.42,2.07-3.98.52-9.6.7-12.36.55l-1.09-.06,1.06,4.18h.64c4.05-.06,7.41-.21,10.24-.48v5.4h-14.64v4.11h14.53c-.57,5.83-3.35,9.64-8.96,12.32l-1.25.6,4.17,2.92.44-.26c6.29-3.62,9.35-8.44,9.88-15.58h13.45v-4.11h-13.37Z"/><path class="cls-1" d="m200.71,13.33V3.11h-4.39v4.18c.02.14.02.27.02.39v26.87h4.41l-.03-16.58c4.12,1.34,9.91,3.62,13.67,5.66l.79.43,1.79-4.32-.68-.33c-3.78-1.87-10.54-4.5-15.57-6.07Z"/><path class="cls-1" d="m260.24,19.85c-.75-2.01-2.72-6.95-3.42-8.46l-.32-.69-4.04,1.59.47.81c.66,1.14,2.69,6.29,3.25,8.22l.24.84,4.11-1.57-.28-.75Z"/><path class="cls-1" d="m246.86,16.66c-4,5.19-11.82,10.15-19.24,12.25V8.45l.02-4.06h-4.37v27.52s2.36,2.06,2.36,2.06l2.81-.77c9.14-2.76,16.46-7.34,21.18-13.23l.36-.45-2.43-3.76-.7.91Z"/></g></svg>